<?xml version="1.0" encoding="utf-8"?>
<svg xmlns="http://www.w3.org/2000/svg"
     xmlns:xlink="http://www.w3.org/1999/xlink"
     width="300" height="300">
     <line x1="63" y1="236" x2="44" y2="255" style="stroke:rgb(0,0,0);stroke-width:1" />
     <line x1="54" y1="245" x2="32" y2="267" style="stroke:rgb(0,0,0);stroke-width:1" />
     <line x1="63" y1="236" x2="54" y2="245" style="stroke:rgb(0,0,0);stroke-width:1" />
     <line x1="44" y1="255" x2="32" y2="267" style="stroke:rgb(0,0,0);stroke-width:1" />
     <line x1="63" y1="63" x2="44" y2="44" style="stroke:rgb(0,0,0);stroke-width:1" />
     <line x1="54" y1="54" x2="32" y2="32" style="stroke:rgb(0,0,0);stroke-width:1" />
     <line x1="63" y1="63" x2="54" y2="54" style="stroke:rgb(0,0,0);stroke-width:1" />
     <line x1="44" y1="44" x2="32" y2="32" style="stroke:rgb(0,0,0);stroke-width:1" />
     <line x1="63" y1="236" x2="44" y2="255" style="stroke:rgb(0,0,0);stroke-width:1" />
     <line x1="63" y1="63" x2="44" y2="44" style="stroke:rgb(0,0,0);stroke-width:1" />
     <line x1="63" y1="236" x2="63" y2="63" style="stroke:rgb(0,0,0);stroke-width:1" />
     <line x1="44" y1="255" x2="44" y2="44" style="stroke:rgb(0,0,0);stroke-width:1" />
     <line x1="54" y1="245" x2="32" y2="267" style="stroke:rgb(0,0,0);stroke-width:1" />
     <line x1="54" y1="54" x2="32" y2="32" style="stroke:rgb(0,0,0);stroke-width:1" />
     <line x1="54" y1="245" x2="54" y2="54" style="stroke:rgb(0,0,0);stroke-width:1" />
     <line x1="32" y1="267" x2="32" y2="32" style="stroke:rgb(0,0,0);stroke-width:1" />
     <line x1="236" y1="236" x2="255" y2="255" style="stroke:rgb(0,0,0);stroke-width:1" />
     <line x1="245" y1="245" x2="267" y2="267" style="stroke:rgb(0,0,0);stroke-width:1" />
     <line x1="236" y1="236" x2="245" y2="245" style="stroke:rgb(0,0,0);stroke-width:1" />
     <line x1="255" y1="255" x2="267" y2="267" style="stroke:rgb(0,0,0);stroke-width:1" />
     <line x1="236" y1="63" x2="255" y2="44" style="stroke:rgb(0,0,0);stroke-width:1" />
     <line x1="245" y1="54" x2="267" y2="32" style="stroke:rgb(0,0,0);stroke-width:1" />
     <line x1="236" y1="63" x2="245" y2="54" style="stroke:rgb(0,0,0);stroke-width:1" />
     <line x1="255" y1="44" x2="267" y2="32" style="stroke:rgb(0,0,0);stroke-width:1" />
     <line x1="236" y1="236" x2="255" y2="255" style="stroke:rgb(0,0,0);stroke-width:1" />
     <line x1="236" y1="63" x2="255" y2="44" style="stroke:rgb(0,0,0);stroke-width:1" />
     <line x1="236" y1="236" x2="236" y2="63" style="stroke:rgb(0,0,0);stroke-width:1" />
     <line x1="255" y1="255" x2="255" y2="44" style="stroke:rgb(0,0,0);stroke-width:1" />
     <line x1="245" y1="245" x2="267" y2="267" style="stroke:rgb(0,0,0);stroke-width:1" />
     <line x1="245" y1="54" x2="267" y2="32" style="stroke:rgb(0,0,0);stroke-width:1" />
     <line x1="245" y1="245" x2="245" y2="54" style="stroke:rgb(0,0,0);stroke-width:1" />
     <line x1="267" y1="267" x2="267" y2="32" style="stroke:rgb(0,0,0);stroke-width:1" />
     <line x1="63" y1="236" x2="44" y2="255" style="stroke:rgb(0,0,0);stroke-width:1" />
     <line x1="54" y1="245" x2="32" y2="267" style="stroke:rgb(0,0,0);stroke-width:1" />
     <line x1="63" y1="236" x2="54" y2="245" style="stroke:rgb(0,0,0);stroke-width:1" />
     <line x1="44" y1="255" x2="32" y2="267" style="stroke:rgb(0,0,0);stroke-width:1" />
     <line x1="236" y1="236" x2="255" y2="255" style="stroke:rgb(0,0,0);stroke-width:1" />
     <line x1="245" y1="245" x2="267" y2="267" style="stroke:rgb(0,0,0);stroke-width:1" />
     <line x1="236" y1="236" x2="245" y2="245" style="stroke:rgb(0,0,0);stroke-width:1" />
     <line x1="255" y1="255" x2="267" y2="267" style="stroke:rgb(0,0,0);stroke-width:1" />
     <line x1="63" y1="236" x2="44" y2="255" style="stroke:rgb(0,0,0);stroke-width:1" />
     <line x1="236" y1="236" x2="255" y2="255" style="stroke:rgb(0,0,0);stroke-width:1" />
     <line x1="63" y1="236" x2="236" y2="236" style="stroke:rgb(0,0,0);stroke-width:1" />
     <line x1="44" y1="255" x2="255" y2="255" style="stroke:rgb(0,0,0);stroke-width:1" />
     <line x1="54" y1="245" x2="32" y2="267" style="stroke:rgb(0,0,0);stroke-width:1" />
     <line x1="245" y1="245" x2="267" y2="267" style="stroke:rgb(0,0,0);stroke-width:1" />
     <line x1="54" y1="245" x2="245" y2="245" style="stroke:rgb(0,0,0);stroke-width:1" />
     <line x1="32" y1="267" x2="267" y2="267" style="stroke:rgb(0,0,0);stroke-width:1" />
     <line x1="63" y1="63" x2="44" y2="44" style="stroke:rgb(0,0,0);stroke-width:1" />
     <line x1="54" y1="54" x2="32" y2="32" style="stroke:rgb(0,0,0);stroke-width:1" />
     <line x1="63" y1="63" x2="54" y2="54" style="stroke:rgb(0,0,0);stroke-width:1" />
     <line x1="44" y1="44" x2="32" y2="32" style="stroke:rgb(0,0,0);stroke-width:1" />
     <line x1="236" y1="63" x2="255" y2="44" style="stroke:rgb(0,0,0);stroke-width:1" />
     <line x1="245" y1="54" x2="267" y2="32" style="stroke:rgb(0,0,0);stroke-width:1" />
     <line x1="236" y1="63" x2="245" y2="54" style="stroke:rgb(0,0,0);stroke-width:1" />
     <line x1="255" y1="44" x2="267" y2="32" style="stroke:rgb(0,0,0);stroke-width:1" />
     <line x1="63" y1="63" x2="44" y2="44" style="stroke:rgb(0,0,0);stroke-width:1" />
     <line x1="236" y1="63" x2="255" y2="44" style="stroke:rgb(0,0,0);stroke-width:1" />
     <line x1="63" y1="63" x2="236" y2="63" style="stroke:rgb(0,0,0);stroke-width:1" />
     <line x1="44" y1="44" x2="255" y2="44" style="stroke:rgb(0,0,0);stroke-width:1" />
     <line x1="54" y1="54" x2="32" y2="32" style="stroke:rgb(0,0,0);stroke-width:1" />
     <line x1="245" y1="54" x2="267" y2="32" style="stroke:rgb(0,0,0);stroke-width:1" />
     <line x1="54" y1="54" x2="245" y2="54" style="stroke:rgb(0,0,0);stroke-width:1" />
     <line x1="32" y1="32" x2="267" y2="32" style="stroke:rgb(0,0,0);stroke-width:1" />
</svg>
