<?xml version="1.0" encoding="utf-8"?>
<svg xmlns="http://www.w3.org/2000/svg"
     xmlns:xlink="http://www.w3.org/1999/xlink"
     width="300" height="300">
     <line x1="79" y1="236" x2="65" y2="254" style="stroke:rgb(0,0,0);stroke-width:1" />
     <line x1="40" y1="244" x2="15" y2="266" style="stroke:rgb(0,0,0);stroke-width:1" />
     <line x1="79" y1="236" x2="40" y2="244" style="stroke:rgb(0,0,0);stroke-width:1" />
     <line x1="65" y1="254" x2="15" y2="266" style="stroke:rgb(0,0,0);stroke-width:1" />
     <line x1="79" y1="63" x2="65" y2="45" style="stroke:rgb(0,0,0);stroke-width:1" />
     <line x1="40" y1="55" x2="15" y2="33" style="stroke:rgb(0,0,0);stroke-width:1" />
     <line x1="79" y1="63" x2="40" y2="55" style="stroke:rgb(0,0,0);stroke-width:1" />
     <line x1="65" y1="45" x2="15" y2="33" style="stroke:rgb(0,0,0);stroke-width:1" />
     <line x1="79" y1="236" x2="65" y2="254" style="stroke:rgb(0,0,0);stroke-width:1" />
     <line x1="79" y1="63" x2="65" y2="45" style="stroke:rgb(0,0,0);stroke-width:1" />
     <line x1="79" y1="236" x2="79" y2="63" style="stroke:rgb(0,0,0);stroke-width:1" />
     <line x1="65" y1="254" x2="65" y2="45" style="stroke:rgb(0,0,0);stroke-width:1" />
     <line x1="40" y1="244" x2="15" y2="266" style="stroke:rgb(0,0,0);stroke-width:1" />
     <line x1="40" y1="55" x2="15" y2="33" style="stroke:rgb(0,0,0);stroke-width:1" />
     <line x1="40" y1="244" x2="40" y2="55" style="stroke:rgb(0,0,0);stroke-width:1" />
     <line x1="15" y1="266" x2="15" y2="33" style="stroke:rgb(0,0,0);stroke-width:1" />
     <line x1="251" y1="237" x2="273" y2="256" style="stroke:rgb(0,0,0);stroke-width:1" />
     <line x1="227" y1="245" x2="246" y2="268" style="stroke:rgb(0,0,0);stroke-width:1" />
     <line x1="251" y1="237" x2="227" y2="245" style="stroke:rgb(0,0,0);stroke-width:1" />
     <line x1="273" y1="256" x2="246" y2="268" style="stroke:rgb(0,0,0);stroke-width:1" />
     <line x1="251" y1="62" x2="273" y2="43" style="stroke:rgb(0,0,0);stroke-width:1" />
     <line x1="227" y1="54" x2="246" y2="31" style="stroke:rgb(0,0,0);stroke-width:1" />
     <line x1="251" y1="62" x2="227" y2="54" style="stroke:rgb(0,0,0);stroke-width:1" />
     <line x1="273" y1="43" x2="246" y2="31" style="stroke:rgb(0,0,0);stroke-width:1" />
     <line x1="251" y1="237" x2="273" y2="256" style="stroke:rgb(0,0,0);stroke-width:1" />
     <line x1="251" y1="62" x2="273" y2="43" style="stroke:rgb(0,0,0);stroke-width:1" />
     <line x1="251" y1="237" x2="251" y2="62" style="stroke:rgb(0,0,0);stroke-width:1" />
     <line x1="273" y1="256" x2="273" y2="43" style="stroke:rgb(0,0,0);stroke-width:1" />
     <line x1="227" y1="245" x2="246" y2="268" style="stroke:rgb(0,0,0);stroke-width:1" />
     <line x1="227" y1="54" x2="246" y2="31" style="stroke:rgb(0,0,0);stroke-width:1" />
     <line x1="227" y1="245" x2="227" y2="54" style="stroke:rgb(0,0,0);stroke-width:1" />
     <line x1="246" y1="268" x2="246" y2="31" style="stroke:rgb(0,0,0);stroke-width:1" />
     <line x1="79" y1="236" x2="65" y2="254" style="stroke:rgb(0,0,0);stroke-width:1" />
     <line x1="40" y1="244" x2="15" y2="266" style="stroke:rgb(0,0,0);stroke-width:1" />
     <line x1="79" y1="236" x2="40" y2="244" style="stroke:rgb(0,0,0);stroke-width:1" />
     <line x1="65" y1="254" x2="15" y2="266" style="stroke:rgb(0,0,0);stroke-width:1" />
     <line x1="251" y1="237" x2="273" y2="256" style="stroke:rgb(0,0,0);stroke-width:1" />
     <line x1="227" y1="245" x2="246" y2="268" style="stroke:rgb(0,0,0);stroke-width:1" />
     <line x1="251" y1="237" x2="227" y2="245" style="stroke:rgb(0,0,0);stroke-width:1" />
     <line x1="273" y1="256" x2="246" y2="268" style="stroke:rgb(0,0,0);stroke-width:1" />
     <line x1="79" y1="236" x2="65" y2="254" style="stroke:rgb(0,0,0);stroke-width:1" />
     <line x1="251" y1="237" x2="273" y2="256" style="stroke:rgb(0,0,0);stroke-width:1" />
     <line x1="79" y1="236" x2="251" y2="237" style="stroke:rgb(0,0,0);stroke-width:1" />
     <line x1="65" y1="254" x2="273" y2="256" style="stroke:rgb(0,0,0);stroke-width:1" />
     <line x1="40" y1="244" x2="15" y2="266" style="stroke:rgb(0,0,0);stroke-width:1" />
     <line x1="227" y1="245" x2="246" y2="268" style="stroke:rgb(0,0,0);stroke-width:1" />
     <line x1="40" y1="244" x2="227" y2="245" style="stroke:rgb(0,0,0);stroke-width:1" />
     <line x1="15" y1="266" x2="246" y2="268" style="stroke:rgb(0,0,0);stroke-width:1" />
     <line x1="79" y1="63" x2="65" y2="45" style="stroke:rgb(0,0,0);stroke-width:1" />
     <line x1="40" y1="55" x2="15" y2="33" style="stroke:rgb(0,0,0);stroke-width:1" />
     <line x1="79" y1="63" x2="40" y2="55" style="stroke:rgb(0,0,0);stroke-width:1" />
     <line x1="65" y1="45" x2="15" y2="33" style="stroke:rgb(0,0,0);stroke-width:1" />
     <line x1="251" y1="62" x2="273" y2="43" style="stroke:rgb(0,0,0);stroke-width:1" />
     <line x1="227" y1="54" x2="246" y2="31" style="stroke:rgb(0,0,0);stroke-width:1" />
     <line x1="251" y1="62" x2="227" y2="54" style="stroke:rgb(0,0,0);stroke-width:1" />
     <line x1="273" y1="43" x2="246" y2="31" style="stroke:rgb(0,0,0);stroke-width:1" />
     <line x1="79" y1="63" x2="65" y2="45" style="stroke:rgb(0,0,0);stroke-width:1" />
     <line x1="251" y1="62" x2="273" y2="43" style="stroke:rgb(0,0,0);stroke-width:1" />
     <line x1="79" y1="63" x2="251" y2="62" style="stroke:rgb(0,0,0);stroke-width:1" />
     <line x1="65" y1="45" x2="273" y2="43" style="stroke:rgb(0,0,0);stroke-width:1" />
     <line x1="40" y1="55" x2="15" y2="33" style="stroke:rgb(0,0,0);stroke-width:1" />
     <line x1="227" y1="54" x2="246" y2="31" style="stroke:rgb(0,0,0);stroke-width:1" />
     <line x1="40" y1="55" x2="227" y2="54" style="stroke:rgb(0,0,0);stroke-width:1" />
     <line x1="15" y1="33" x2="246" y2="31" style="stroke:rgb(0,0,0);stroke-width:1" />
</svg>
