<?xml version="1.0" encoding="utf-8"?>
<svg xmlns="http://www.w3.org/2000/svg"
     xmlns:xlink="http://www.w3.org/1999/xlink"
     width="1000" height="1000">
     <line x1="280" y1="770" x2="258" y2="797" style="stroke:rgb(0,0,0);stroke-width:1" />
     <line x1="155" y1="797" x2="117" y2="829" style="stroke:rgb(0,0,0);stroke-width:1" />
     <line x1="280" y1="770" x2="155" y2="797" style="stroke:rgb(0,0,0);stroke-width:1" />
     <line x1="258" y1="797" x2="117" y2="829" style="stroke:rgb(0,0,0);stroke-width:1" />
     <line x1="280" y1="229" x2="258" y2="202" style="stroke:rgb(0,0,0);stroke-width:1" />
     <line x1="155" y1="202" x2="117" y2="170" style="stroke:rgb(0,0,0);stroke-width:1" />
     <line x1="280" y1="229" x2="155" y2="202" style="stroke:rgb(0,0,0);stroke-width:1" />
     <line x1="258" y1="202" x2="117" y2="170" style="stroke:rgb(0,0,0);stroke-width:1" />
     <line x1="280" y1="770" x2="258" y2="797" style="stroke:rgb(0,0,0);stroke-width:1" />
     <line x1="280" y1="229" x2="258" y2="202" style="stroke:rgb(0,0,0);stroke-width:1" />
     <line x1="280" y1="770" x2="280" y2="229" style="stroke:rgb(0,0,0);stroke-width:1" />
     <line x1="258" y1="797" x2="258" y2="202" style="stroke:rgb(0,0,0);stroke-width:1" />
     <line x1="155" y1="797" x2="117" y2="829" style="stroke:rgb(0,0,0);stroke-width:1" />
     <line x1="155" y1="202" x2="117" y2="170" style="stroke:rgb(0,0,0);stroke-width:1" />
     <line x1="155" y1="797" x2="155" y2="202" style="stroke:rgb(0,0,0);stroke-width:1" />
     <line x1="117" y1="829" x2="117" y2="170" style="stroke:rgb(0,0,0);stroke-width:1" />
     <line x1="818" y1="775" x2="850" y2="802" style="stroke:rgb(0,0,0);stroke-width:1" />
     <line x1="745" y1="802" x2="772" y2="836" style="stroke:rgb(0,0,0);stroke-width:1" />
     <line x1="818" y1="775" x2="745" y2="802" style="stroke:rgb(0,0,0);stroke-width:1" />
     <line x1="850" y1="802" x2="772" y2="836" style="stroke:rgb(0,0,0);stroke-width:1" />
     <line x1="818" y1="224" x2="850" y2="197" style="stroke:rgb(0,0,0);stroke-width:1" />
     <line x1="745" y1="197" x2="772" y2="163" style="stroke:rgb(0,0,0);stroke-width:1" />
     <line x1="818" y1="224" x2="745" y2="197" style="stroke:rgb(0,0,0);stroke-width:1" />
     <line x1="850" y1="197" x2="772" y2="163" style="stroke:rgb(0,0,0);stroke-width:1" />
     <line x1="818" y1="775" x2="850" y2="802" style="stroke:rgb(0,0,0);stroke-width:1" />
     <line x1="818" y1="224" x2="850" y2="197" style="stroke:rgb(0,0,0);stroke-width:1" />
     <line x1="818" y1="775" x2="818" y2="224" style="stroke:rgb(0,0,0);stroke-width:1" />
     <line x1="850" y1="802" x2="850" y2="197" style="stroke:rgb(0,0,0);stroke-width:1" />
     <line x1="745" y1="802" x2="772" y2="836" style="stroke:rgb(0,0,0);stroke-width:1" />
     <line x1="745" y1="197" x2="772" y2="163" style="stroke:rgb(0,0,0);stroke-width:1" />
     <line x1="745" y1="802" x2="745" y2="197" style="stroke:rgb(0,0,0);stroke-width:1" />
     <line x1="772" y1="836" x2="772" y2="163" style="stroke:rgb(0,0,0);stroke-width:1" />
     <line x1="280" y1="770" x2="258" y2="797" style="stroke:rgb(0,0,0);stroke-width:1" />
     <line x1="155" y1="797" x2="117" y2="829" style="stroke:rgb(0,0,0);stroke-width:1" />
     <line x1="280" y1="770" x2="155" y2="797" style="stroke:rgb(0,0,0);stroke-width:1" />
     <line x1="258" y1="797" x2="117" y2="829" style="stroke:rgb(0,0,0);stroke-width:1" />
     <line x1="818" y1="775" x2="850" y2="802" style="stroke:rgb(0,0,0);stroke-width:1" />
     <line x1="745" y1="802" x2="772" y2="836" style="stroke:rgb(0,0,0);stroke-width:1" />
     <line x1="818" y1="775" x2="745" y2="802" style="stroke:rgb(0,0,0);stroke-width:1" />
     <line x1="850" y1="802" x2="772" y2="836" style="stroke:rgb(0,0,0);stroke-width:1" />
     <line x1="280" y1="770" x2="258" y2="797" style="stroke:rgb(0,0,0);stroke-width:1" />
     <line x1="818" y1="775" x2="850" y2="802" style="stroke:rgb(0,0,0);stroke-width:1" />
     <line x1="280" y1="770" x2="818" y2="775" style="stroke:rgb(0,0,0);stroke-width:1" />
     <line x1="258" y1="797" x2="850" y2="802" style="stroke:rgb(0,0,0);stroke-width:1" />
     <line x1="155" y1="797" x2="117" y2="829" style="stroke:rgb(0,0,0);stroke-width:1" />
     <line x1="745" y1="802" x2="772" y2="836" style="stroke:rgb(0,0,0);stroke-width:1" />
     <line x1="155" y1="797" x2="745" y2="802" style="stroke:rgb(0,0,0);stroke-width:1" />
     <line x1="117" y1="829" x2="772" y2="836" style="stroke:rgb(0,0,0);stroke-width:1" />
     <line x1="280" y1="229" x2="258" y2="202" style="stroke:rgb(0,0,0);stroke-width:1" />
     <line x1="155" y1="202" x2="117" y2="170" style="stroke:rgb(0,0,0);stroke-width:1" />
     <line x1="280" y1="229" x2="155" y2="202" style="stroke:rgb(0,0,0);stroke-width:1" />
     <line x1="258" y1="202" x2="117" y2="170" style="stroke:rgb(0,0,0);stroke-width:1" />
     <line x1="818" y1="224" x2="850" y2="197" style="stroke:rgb(0,0,0);stroke-width:1" />
     <line x1="745" y1="197" x2="772" y2="163" style="stroke:rgb(0,0,0);stroke-width:1" />
     <line x1="818" y1="224" x2="745" y2="197" style="stroke:rgb(0,0,0);stroke-width:1" />
     <line x1="850" y1="197" x2="772" y2="163" style="stroke:rgb(0,0,0);stroke-width:1" />
     <line x1="280" y1="229" x2="258" y2="202" style="stroke:rgb(0,0,0);stroke-width:1" />
     <line x1="818" y1="224" x2="850" y2="197" style="stroke:rgb(0,0,0);stroke-width:1" />
     <line x1="280" y1="229" x2="818" y2="224" style="stroke:rgb(0,0,0);stroke-width:1" />
     <line x1="258" y1="202" x2="850" y2="197" style="stroke:rgb(0,0,0);stroke-width:1" />
     <line x1="155" y1="202" x2="117" y2="170" style="stroke:rgb(0,0,0);stroke-width:1" />
     <line x1="745" y1="197" x2="772" y2="163" style="stroke:rgb(0,0,0);stroke-width:1" />
     <line x1="155" y1="202" x2="745" y2="197" style="stroke:rgb(0,0,0);stroke-width:1" />
     <line x1="117" y1="170" x2="772" y2="163" style="stroke:rgb(0,0,0);stroke-width:1" />
</svg>
