<?xml version="1.0" encoding="utf-8"?>
<svg xmlns="http://www.w3.org/2000/svg"
     xmlns:xlink="http://www.w3.org/1999/xlink"
     width="700" height="700">
     <line x1="175" y1="560" x2="153" y2="488" style="stroke:rgb(0,0,0);stroke-width:1" />
     <line x1="126" y1="611" x2="98" y2="545" style="stroke:rgb(0,0,0);stroke-width:1" />
     <line x1="175" y1="560" x2="126" y2="611" style="stroke:rgb(0,0,0);stroke-width:1" />
     <line x1="153" y1="488" x2="98" y2="545" style="stroke:rgb(0,0,0);stroke-width:1" />
     <line x1="170" y1="277" x2="149" y2="174" style="stroke:rgb(0,0,0);stroke-width:1" />
     <line x1="122" y1="324" x2="95" y2="225" style="stroke:rgb(0,0,0);stroke-width:1" />
     <line x1="170" y1="277" x2="122" y2="324" style="stroke:rgb(0,0,0);stroke-width:1" />
     <line x1="149" y1="174" x2="95" y2="225" style="stroke:rgb(0,0,0);stroke-width:1" />
     <line x1="175" y1="560" x2="153" y2="488" style="stroke:rgb(0,0,0);stroke-width:1" />
     <line x1="170" y1="277" x2="149" y2="174" style="stroke:rgb(0,0,0);stroke-width:1" />
     <line x1="175" y1="560" x2="170" y2="277" style="stroke:rgb(0,0,0);stroke-width:1" />
     <line x1="153" y1="488" x2="149" y2="174" style="stroke:rgb(0,0,0);stroke-width:1" />
     <line x1="126" y1="611" x2="98" y2="545" style="stroke:rgb(0,0,0);stroke-width:1" />
     <line x1="122" y1="324" x2="95" y2="225" style="stroke:rgb(0,0,0);stroke-width:1" />
     <line x1="126" y1="611" x2="122" y2="324" style="stroke:rgb(0,0,0);stroke-width:1" />
     <line x1="98" y1="545" x2="95" y2="225" style="stroke:rgb(0,0,0);stroke-width:1" />
     <line x1="473" y1="560" x2="488" y2="487" style="stroke:rgb(0,0,0);stroke-width:1" />
     <line x1="427" y1="612" x2="437" y2="545" style="stroke:rgb(0,0,0);stroke-width:1" />
     <line x1="473" y1="560" x2="427" y2="612" style="stroke:rgb(0,0,0);stroke-width:1" />
     <line x1="488" y1="487" x2="437" y2="545" style="stroke:rgb(0,0,0);stroke-width:1" />
     <line x1="462" y1="275" x2="475" y2="170" style="stroke:rgb(0,0,0);stroke-width:1" />
     <line x1="417" y1="322" x2="425" y2="222" style="stroke:rgb(0,0,0);stroke-width:1" />
     <line x1="462" y1="275" x2="417" y2="322" style="stroke:rgb(0,0,0);stroke-width:1" />
     <line x1="475" y1="170" x2="425" y2="222" style="stroke:rgb(0,0,0);stroke-width:1" />
     <line x1="473" y1="560" x2="488" y2="487" style="stroke:rgb(0,0,0);stroke-width:1" />
     <line x1="462" y1="275" x2="475" y2="170" style="stroke:rgb(0,0,0);stroke-width:1" />
     <line x1="473" y1="560" x2="462" y2="275" style="stroke:rgb(0,0,0);stroke-width:1" />
     <line x1="488" y1="487" x2="475" y2="170" style="stroke:rgb(0,0,0);stroke-width:1" />
     <line x1="427" y1="612" x2="437" y2="545" style="stroke:rgb(0,0,0);stroke-width:1" />
     <line x1="417" y1="322" x2="425" y2="222" style="stroke:rgb(0,0,0);stroke-width:1" />
     <line x1="427" y1="612" x2="417" y2="322" style="stroke:rgb(0,0,0);stroke-width:1" />
     <line x1="437" y1="545" x2="425" y2="222" style="stroke:rgb(0,0,0);stroke-width:1" />
     <line x1="175" y1="560" x2="153" y2="488" style="stroke:rgb(0,0,0);stroke-width:1" />
     <line x1="126" y1="611" x2="98" y2="545" style="stroke:rgb(0,0,0);stroke-width:1" />
     <line x1="175" y1="560" x2="126" y2="611" style="stroke:rgb(0,0,0);stroke-width:1" />
     <line x1="153" y1="488" x2="98" y2="545" style="stroke:rgb(0,0,0);stroke-width:1" />
     <line x1="473" y1="560" x2="488" y2="487" style="stroke:rgb(0,0,0);stroke-width:1" />
     <line x1="427" y1="612" x2="437" y2="545" style="stroke:rgb(0,0,0);stroke-width:1" />
     <line x1="473" y1="560" x2="427" y2="612" style="stroke:rgb(0,0,0);stroke-width:1" />
     <line x1="488" y1="487" x2="437" y2="545" style="stroke:rgb(0,0,0);stroke-width:1" />
     <line x1="175" y1="560" x2="153" y2="488" style="stroke:rgb(0,0,0);stroke-width:1" />
     <line x1="473" y1="560" x2="488" y2="487" style="stroke:rgb(0,0,0);stroke-width:1" />
     <line x1="175" y1="560" x2="473" y2="560" style="stroke:rgb(0,0,0);stroke-width:1" />
     <line x1="153" y1="488" x2="488" y2="487" style="stroke:rgb(0,0,0);stroke-width:1" />
     <line x1="126" y1="611" x2="98" y2="545" style="stroke:rgb(0,0,0);stroke-width:1" />
     <line x1="427" y1="612" x2="437" y2="545" style="stroke:rgb(0,0,0);stroke-width:1" />
     <line x1="126" y1="611" x2="427" y2="612" style="stroke:rgb(0,0,0);stroke-width:1" />
     <line x1="98" y1="545" x2="437" y2="545" style="stroke:rgb(0,0,0);stroke-width:1" />
     <line x1="170" y1="277" x2="149" y2="174" style="stroke:rgb(0,0,0);stroke-width:1" />
     <line x1="122" y1="324" x2="95" y2="225" style="stroke:rgb(0,0,0);stroke-width:1" />
     <line x1="170" y1="277" x2="122" y2="324" style="stroke:rgb(0,0,0);stroke-width:1" />
     <line x1="149" y1="174" x2="95" y2="225" style="stroke:rgb(0,0,0);stroke-width:1" />
     <line x1="462" y1="275" x2="475" y2="170" style="stroke:rgb(0,0,0);stroke-width:1" />
     <line x1="417" y1="322" x2="425" y2="222" style="stroke:rgb(0,0,0);stroke-width:1" />
     <line x1="462" y1="275" x2="417" y2="322" style="stroke:rgb(0,0,0);stroke-width:1" />
     <line x1="475" y1="170" x2="425" y2="222" style="stroke:rgb(0,0,0);stroke-width:1" />
     <line x1="170" y1="277" x2="149" y2="174" style="stroke:rgb(0,0,0);stroke-width:1" />
     <line x1="462" y1="275" x2="475" y2="170" style="stroke:rgb(0,0,0);stroke-width:1" />
     <line x1="170" y1="277" x2="462" y2="275" style="stroke:rgb(0,0,0);stroke-width:1" />
     <line x1="149" y1="174" x2="475" y2="170" style="stroke:rgb(0,0,0);stroke-width:1" />
     <line x1="122" y1="324" x2="95" y2="225" style="stroke:rgb(0,0,0);stroke-width:1" />
     <line x1="417" y1="322" x2="425" y2="222" style="stroke:rgb(0,0,0);stroke-width:1" />
     <line x1="122" y1="324" x2="417" y2="322" style="stroke:rgb(0,0,0);stroke-width:1" />
     <line x1="95" y1="225" x2="425" y2="222" style="stroke:rgb(0,0,0);stroke-width:1" />
</svg>
