<?xml version="1.0" encoding="utf-8"?>
<svg xmlns="http://www.w3.org/2000/svg"
     xmlns:xlink="http://www.w3.org/1999/xlink"
     width="300" height="300">
     <line x1="81" y1="237" x2="59" y2="257" style="stroke:rgb(0,0,0);stroke-width:1" />
     <line x1="46" y1="242" x2="13" y2="264" style="stroke:rgb(0,0,0);stroke-width:1" />
     <line x1="81" y1="237" x2="46" y2="242" style="stroke:rgb(0,0,0);stroke-width:1" />
     <line x1="59" y1="257" x2="13" y2="264" style="stroke:rgb(0,0,0);stroke-width:1" />
     <line x1="81" y1="62" x2="59" y2="42" style="stroke:rgb(0,0,0);stroke-width:1" />
     <line x1="46" y1="57" x2="13" y2="35" style="stroke:rgb(0,0,0);stroke-width:1" />
     <line x1="81" y1="62" x2="46" y2="57" style="stroke:rgb(0,0,0);stroke-width:1" />
     <line x1="59" y1="42" x2="13" y2="35" style="stroke:rgb(0,0,0);stroke-width:1" />
     <line x1="81" y1="237" x2="59" y2="257" style="stroke:rgb(0,0,0);stroke-width:1" />
     <line x1="81" y1="62" x2="59" y2="42" style="stroke:rgb(0,0,0);stroke-width:1" />
     <line x1="81" y1="237" x2="81" y2="62" style="stroke:rgb(0,0,0);stroke-width:1" />
     <line x1="59" y1="257" x2="59" y2="42" style="stroke:rgb(0,0,0);stroke-width:1" />
     <line x1="46" y1="242" x2="13" y2="264" style="stroke:rgb(0,0,0);stroke-width:1" />
     <line x1="46" y1="57" x2="13" y2="35" style="stroke:rgb(0,0,0);stroke-width:1" />
     <line x1="46" y1="242" x2="46" y2="57" style="stroke:rgb(0,0,0);stroke-width:1" />
     <line x1="13" y1="264" x2="13" y2="35" style="stroke:rgb(0,0,0);stroke-width:1" />
     <line x1="255" y1="238" x2="272" y2="259" style="stroke:rgb(0,0,0);stroke-width:1" />
     <line x1="229" y1="243" x2="241" y2="267" style="stroke:rgb(0,0,0);stroke-width:1" />
     <line x1="255" y1="238" x2="229" y2="243" style="stroke:rgb(0,0,0);stroke-width:1" />
     <line x1="272" y1="259" x2="241" y2="267" style="stroke:rgb(0,0,0);stroke-width:1" />
     <line x1="255" y1="61" x2="272" y2="40" style="stroke:rgb(0,0,0);stroke-width:1" />
     <line x1="229" y1="56" x2="241" y2="32" style="stroke:rgb(0,0,0);stroke-width:1" />
     <line x1="255" y1="61" x2="229" y2="56" style="stroke:rgb(0,0,0);stroke-width:1" />
     <line x1="272" y1="40" x2="241" y2="32" style="stroke:rgb(0,0,0);stroke-width:1" />
     <line x1="255" y1="238" x2="272" y2="259" style="stroke:rgb(0,0,0);stroke-width:1" />
     <line x1="255" y1="61" x2="272" y2="40" style="stroke:rgb(0,0,0);stroke-width:1" />
     <line x1="255" y1="238" x2="255" y2="61" style="stroke:rgb(0,0,0);stroke-width:1" />
     <line x1="272" y1="259" x2="272" y2="40" style="stroke:rgb(0,0,0);stroke-width:1" />
     <line x1="229" y1="243" x2="241" y2="267" style="stroke:rgb(0,0,0);stroke-width:1" />
     <line x1="229" y1="56" x2="241" y2="32" style="stroke:rgb(0,0,0);stroke-width:1" />
     <line x1="229" y1="243" x2="229" y2="56" style="stroke:rgb(0,0,0);stroke-width:1" />
     <line x1="241" y1="267" x2="241" y2="32" style="stroke:rgb(0,0,0);stroke-width:1" />
     <line x1="81" y1="237" x2="59" y2="257" style="stroke:rgb(0,0,0);stroke-width:1" />
     <line x1="46" y1="242" x2="13" y2="264" style="stroke:rgb(0,0,0);stroke-width:1" />
     <line x1="81" y1="237" x2="46" y2="242" style="stroke:rgb(0,0,0);stroke-width:1" />
     <line x1="59" y1="257" x2="13" y2="264" style="stroke:rgb(0,0,0);stroke-width:1" />
     <line x1="255" y1="238" x2="272" y2="259" style="stroke:rgb(0,0,0);stroke-width:1" />
     <line x1="229" y1="243" x2="241" y2="267" style="stroke:rgb(0,0,0);stroke-width:1" />
     <line x1="255" y1="238" x2="229" y2="243" style="stroke:rgb(0,0,0);stroke-width:1" />
     <line x1="272" y1="259" x2="241" y2="267" style="stroke:rgb(0,0,0);stroke-width:1" />
     <line x1="81" y1="237" x2="59" y2="257" style="stroke:rgb(0,0,0);stroke-width:1" />
     <line x1="255" y1="238" x2="272" y2="259" style="stroke:rgb(0,0,0);stroke-width:1" />
     <line x1="81" y1="237" x2="255" y2="238" style="stroke:rgb(0,0,0);stroke-width:1" />
     <line x1="59" y1="257" x2="272" y2="259" style="stroke:rgb(0,0,0);stroke-width:1" />
     <line x1="46" y1="242" x2="13" y2="264" style="stroke:rgb(0,0,0);stroke-width:1" />
     <line x1="229" y1="243" x2="241" y2="267" style="stroke:rgb(0,0,0);stroke-width:1" />
     <line x1="46" y1="242" x2="229" y2="243" style="stroke:rgb(0,0,0);stroke-width:1" />
     <line x1="13" y1="264" x2="241" y2="267" style="stroke:rgb(0,0,0);stroke-width:1" />
     <line x1="81" y1="62" x2="59" y2="42" style="stroke:rgb(0,0,0);stroke-width:1" />
     <line x1="46" y1="57" x2="13" y2="35" style="stroke:rgb(0,0,0);stroke-width:1" />
     <line x1="81" y1="62" x2="46" y2="57" style="stroke:rgb(0,0,0);stroke-width:1" />
     <line x1="59" y1="42" x2="13" y2="35" style="stroke:rgb(0,0,0);stroke-width:1" />
     <line x1="255" y1="61" x2="272" y2="40" style="stroke:rgb(0,0,0);stroke-width:1" />
     <line x1="229" y1="56" x2="241" y2="32" style="stroke:rgb(0,0,0);stroke-width:1" />
     <line x1="255" y1="61" x2="229" y2="56" style="stroke:rgb(0,0,0);stroke-width:1" />
     <line x1="272" y1="40" x2="241" y2="32" style="stroke:rgb(0,0,0);stroke-width:1" />
     <line x1="81" y1="62" x2="59" y2="42" style="stroke:rgb(0,0,0);stroke-width:1" />
     <line x1="255" y1="61" x2="272" y2="40" style="stroke:rgb(0,0,0);stroke-width:1" />
     <line x1="81" y1="62" x2="255" y2="61" style="stroke:rgb(0,0,0);stroke-width:1" />
     <line x1="59" y1="42" x2="272" y2="40" style="stroke:rgb(0,0,0);stroke-width:1" />
     <line x1="46" y1="57" x2="13" y2="35" style="stroke:rgb(0,0,0);stroke-width:1" />
     <line x1="229" y1="56" x2="241" y2="32" style="stroke:rgb(0,0,0);stroke-width:1" />
     <line x1="46" y1="57" x2="229" y2="56" style="stroke:rgb(0,0,0);stroke-width:1" />
     <line x1="13" y1="35" x2="241" y2="32" style="stroke:rgb(0,0,0);stroke-width:1" />
</svg>
