<?xml version="1.0" encoding="utf-8"?>
<svg xmlns="http://www.w3.org/2000/svg"
     xmlns:xlink="http://www.w3.org/1999/xlink"
     width="200" height="200">
     <line x1="65" y1="143" x2="54" y2="153" style="stroke:rgb(0,0,0);stroke-width:1" />
     <line x1="48" y1="146" x2="31" y2="157" style="stroke:rgb(0,0,0);stroke-width:1" />
     <line x1="65" y1="143" x2="48" y2="146" style="stroke:rgb(0,0,0);stroke-width:1" />
     <line x1="54" y1="153" x2="31" y2="157" style="stroke:rgb(0,0,0);stroke-width:1" />
     <line x1="65" y1="56" x2="54" y2="46" style="stroke:rgb(0,0,0);stroke-width:1" />
     <line x1="48" y1="53" x2="31" y2="42" style="stroke:rgb(0,0,0);stroke-width:1" />
     <line x1="65" y1="56" x2="48" y2="53" style="stroke:rgb(0,0,0);stroke-width:1" />
     <line x1="54" y1="46" x2="31" y2="42" style="stroke:rgb(0,0,0);stroke-width:1" />
     <line x1="65" y1="143" x2="54" y2="153" style="stroke:rgb(0,0,0);stroke-width:1" />
     <line x1="65" y1="56" x2="54" y2="46" style="stroke:rgb(0,0,0);stroke-width:1" />
     <line x1="65" y1="143" x2="65" y2="56" style="stroke:rgb(0,0,0);stroke-width:1" />
     <line x1="54" y1="153" x2="54" y2="46" style="stroke:rgb(0,0,0);stroke-width:1" />
     <line x1="48" y1="146" x2="31" y2="157" style="stroke:rgb(0,0,0);stroke-width:1" />
     <line x1="48" y1="53" x2="31" y2="42" style="stroke:rgb(0,0,0);stroke-width:1" />
     <line x1="48" y1="146" x2="48" y2="53" style="stroke:rgb(0,0,0);stroke-width:1" />
     <line x1="31" y1="157" x2="31" y2="42" style="stroke:rgb(0,0,0);stroke-width:1" />
     <line x1="152" y1="144" x2="161" y2="154" style="stroke:rgb(0,0,0);stroke-width:1" />
     <line x1="139" y1="146" x2="145" y2="158" style="stroke:rgb(0,0,0);stroke-width:1" />
     <line x1="152" y1="144" x2="139" y2="146" style="stroke:rgb(0,0,0);stroke-width:1" />
     <line x1="161" y1="154" x2="145" y2="158" style="stroke:rgb(0,0,0);stroke-width:1" />
     <line x1="152" y1="55" x2="161" y2="45" style="stroke:rgb(0,0,0);stroke-width:1" />
     <line x1="139" y1="53" x2="145" y2="41" style="stroke:rgb(0,0,0);stroke-width:1" />
     <line x1="152" y1="55" x2="139" y2="53" style="stroke:rgb(0,0,0);stroke-width:1" />
     <line x1="161" y1="45" x2="145" y2="41" style="stroke:rgb(0,0,0);stroke-width:1" />
     <line x1="152" y1="144" x2="161" y2="154" style="stroke:rgb(0,0,0);stroke-width:1" />
     <line x1="152" y1="55" x2="161" y2="45" style="stroke:rgb(0,0,0);stroke-width:1" />
     <line x1="152" y1="144" x2="152" y2="55" style="stroke:rgb(0,0,0);stroke-width:1" />
     <line x1="161" y1="154" x2="161" y2="45" style="stroke:rgb(0,0,0);stroke-width:1" />
     <line x1="139" y1="146" x2="145" y2="158" style="stroke:rgb(0,0,0);stroke-width:1" />
     <line x1="139" y1="53" x2="145" y2="41" style="stroke:rgb(0,0,0);stroke-width:1" />
     <line x1="139" y1="146" x2="139" y2="53" style="stroke:rgb(0,0,0);stroke-width:1" />
     <line x1="145" y1="158" x2="145" y2="41" style="stroke:rgb(0,0,0);stroke-width:1" />
     <line x1="65" y1="143" x2="54" y2="153" style="stroke:rgb(0,0,0);stroke-width:1" />
     <line x1="48" y1="146" x2="31" y2="157" style="stroke:rgb(0,0,0);stroke-width:1" />
     <line x1="65" y1="143" x2="48" y2="146" style="stroke:rgb(0,0,0);stroke-width:1" />
     <line x1="54" y1="153" x2="31" y2="157" style="stroke:rgb(0,0,0);stroke-width:1" />
     <line x1="152" y1="144" x2="161" y2="154" style="stroke:rgb(0,0,0);stroke-width:1" />
     <line x1="139" y1="146" x2="145" y2="158" style="stroke:rgb(0,0,0);stroke-width:1" />
     <line x1="152" y1="144" x2="139" y2="146" style="stroke:rgb(0,0,0);stroke-width:1" />
     <line x1="161" y1="154" x2="145" y2="158" style="stroke:rgb(0,0,0);stroke-width:1" />
     <line x1="65" y1="143" x2="54" y2="153" style="stroke:rgb(0,0,0);stroke-width:1" />
     <line x1="152" y1="144" x2="161" y2="154" style="stroke:rgb(0,0,0);stroke-width:1" />
     <line x1="65" y1="143" x2="152" y2="144" style="stroke:rgb(0,0,0);stroke-width:1" />
     <line x1="54" y1="153" x2="161" y2="154" style="stroke:rgb(0,0,0);stroke-width:1" />
     <line x1="48" y1="146" x2="31" y2="157" style="stroke:rgb(0,0,0);stroke-width:1" />
     <line x1="139" y1="146" x2="145" y2="158" style="stroke:rgb(0,0,0);stroke-width:1" />
     <line x1="48" y1="146" x2="139" y2="146" style="stroke:rgb(0,0,0);stroke-width:1" />
     <line x1="31" y1="157" x2="145" y2="158" style="stroke:rgb(0,0,0);stroke-width:1" />
     <line x1="65" y1="56" x2="54" y2="46" style="stroke:rgb(0,0,0);stroke-width:1" />
     <line x1="48" y1="53" x2="31" y2="42" style="stroke:rgb(0,0,0);stroke-width:1" />
     <line x1="65" y1="56" x2="48" y2="53" style="stroke:rgb(0,0,0);stroke-width:1" />
     <line x1="54" y1="46" x2="31" y2="42" style="stroke:rgb(0,0,0);stroke-width:1" />
     <line x1="152" y1="55" x2="161" y2="45" style="stroke:rgb(0,0,0);stroke-width:1" />
     <line x1="139" y1="53" x2="145" y2="41" style="stroke:rgb(0,0,0);stroke-width:1" />
     <line x1="152" y1="55" x2="139" y2="53" style="stroke:rgb(0,0,0);stroke-width:1" />
     <line x1="161" y1="45" x2="145" y2="41" style="stroke:rgb(0,0,0);stroke-width:1" />
     <line x1="65" y1="56" x2="54" y2="46" style="stroke:rgb(0,0,0);stroke-width:1" />
     <line x1="152" y1="55" x2="161" y2="45" style="stroke:rgb(0,0,0);stroke-width:1" />
     <line x1="65" y1="56" x2="152" y2="55" style="stroke:rgb(0,0,0);stroke-width:1" />
     <line x1="54" y1="46" x2="161" y2="45" style="stroke:rgb(0,0,0);stroke-width:1" />
     <line x1="48" y1="53" x2="31" y2="42" style="stroke:rgb(0,0,0);stroke-width:1" />
     <line x1="139" y1="53" x2="145" y2="41" style="stroke:rgb(0,0,0);stroke-width:1" />
     <line x1="48" y1="53" x2="139" y2="53" style="stroke:rgb(0,0,0);stroke-width:1" />
     <line x1="31" y1="42" x2="145" y2="41" style="stroke:rgb(0,0,0);stroke-width:1" />
</svg>
