<?xml version="1.0" encoding="utf-8"?>
<svg xmlns="http://www.w3.org/2000/svg"
     xmlns:xlink="http://www.w3.org/1999/xlink"
     width="200" height="200">
     <line x1="66" y1="144" x2="48" y2="156" style="stroke:rgb(0,0,0);stroke-width:1" />
     <line x1="53" y1="144" x2="32" y2="155" style="stroke:rgb(0,0,0);stroke-width:1" />
     <line x1="66" y1="144" x2="53" y2="144" style="stroke:rgb(0,0,0);stroke-width:1" />
     <line x1="48" y1="156" x2="32" y2="155" style="stroke:rgb(0,0,0);stroke-width:1" />
     <line x1="66" y1="55" x2="48" y2="43" style="stroke:rgb(0,0,0);stroke-width:1" />
     <line x1="53" y1="55" x2="32" y2="44" style="stroke:rgb(0,0,0);stroke-width:1" />
     <line x1="66" y1="55" x2="53" y2="55" style="stroke:rgb(0,0,0);stroke-width:1" />
     <line x1="48" y1="43" x2="32" y2="44" style="stroke:rgb(0,0,0);stroke-width:1" />
     <line x1="66" y1="144" x2="48" y2="156" style="stroke:rgb(0,0,0);stroke-width:1" />
     <line x1="66" y1="55" x2="48" y2="43" style="stroke:rgb(0,0,0);stroke-width:1" />
     <line x1="66" y1="144" x2="66" y2="55" style="stroke:rgb(0,0,0);stroke-width:1" />
     <line x1="48" y1="156" x2="48" y2="43" style="stroke:rgb(0,0,0);stroke-width:1" />
     <line x1="53" y1="144" x2="32" y2="155" style="stroke:rgb(0,0,0);stroke-width:1" />
     <line x1="53" y1="55" x2="32" y2="44" style="stroke:rgb(0,0,0);stroke-width:1" />
     <line x1="53" y1="144" x2="53" y2="55" style="stroke:rgb(0,0,0);stroke-width:1" />
     <line x1="32" y1="155" x2="32" y2="44" style="stroke:rgb(0,0,0);stroke-width:1" />
     <line x1="155" y1="145" x2="160" y2="157" style="stroke:rgb(0,0,0);stroke-width:1" />
     <line x1="141" y1="145" x2="142" y2="156" style="stroke:rgb(0,0,0);stroke-width:1" />
     <line x1="155" y1="145" x2="141" y2="145" style="stroke:rgb(0,0,0);stroke-width:1" />
     <line x1="160" y1="157" x2="142" y2="156" style="stroke:rgb(0,0,0);stroke-width:1" />
     <line x1="155" y1="54" x2="160" y2="42" style="stroke:rgb(0,0,0);stroke-width:1" />
     <line x1="141" y1="54" x2="142" y2="43" style="stroke:rgb(0,0,0);stroke-width:1" />
     <line x1="155" y1="54" x2="141" y2="54" style="stroke:rgb(0,0,0);stroke-width:1" />
     <line x1="160" y1="42" x2="142" y2="43" style="stroke:rgb(0,0,0);stroke-width:1" />
     <line x1="155" y1="145" x2="160" y2="157" style="stroke:rgb(0,0,0);stroke-width:1" />
     <line x1="155" y1="54" x2="160" y2="42" style="stroke:rgb(0,0,0);stroke-width:1" />
     <line x1="155" y1="145" x2="155" y2="54" style="stroke:rgb(0,0,0);stroke-width:1" />
     <line x1="160" y1="157" x2="160" y2="42" style="stroke:rgb(0,0,0);stroke-width:1" />
     <line x1="141" y1="145" x2="142" y2="156" style="stroke:rgb(0,0,0);stroke-width:1" />
     <line x1="141" y1="54" x2="142" y2="43" style="stroke:rgb(0,0,0);stroke-width:1" />
     <line x1="141" y1="145" x2="141" y2="54" style="stroke:rgb(0,0,0);stroke-width:1" />
     <line x1="142" y1="156" x2="142" y2="43" style="stroke:rgb(0,0,0);stroke-width:1" />
     <line x1="66" y1="144" x2="48" y2="156" style="stroke:rgb(0,0,0);stroke-width:1" />
     <line x1="53" y1="144" x2="32" y2="155" style="stroke:rgb(0,0,0);stroke-width:1" />
     <line x1="66" y1="144" x2="53" y2="144" style="stroke:rgb(0,0,0);stroke-width:1" />
     <line x1="48" y1="156" x2="32" y2="155" style="stroke:rgb(0,0,0);stroke-width:1" />
     <line x1="155" y1="145" x2="160" y2="157" style="stroke:rgb(0,0,0);stroke-width:1" />
     <line x1="141" y1="145" x2="142" y2="156" style="stroke:rgb(0,0,0);stroke-width:1" />
     <line x1="155" y1="145" x2="141" y2="145" style="stroke:rgb(0,0,0);stroke-width:1" />
     <line x1="160" y1="157" x2="142" y2="156" style="stroke:rgb(0,0,0);stroke-width:1" />
     <line x1="66" y1="144" x2="48" y2="156" style="stroke:rgb(0,0,0);stroke-width:1" />
     <line x1="155" y1="145" x2="160" y2="157" style="stroke:rgb(0,0,0);stroke-width:1" />
     <line x1="66" y1="144" x2="155" y2="145" style="stroke:rgb(0,0,0);stroke-width:1" />
     <line x1="48" y1="156" x2="160" y2="157" style="stroke:rgb(0,0,0);stroke-width:1" />
     <line x1="53" y1="144" x2="32" y2="155" style="stroke:rgb(0,0,0);stroke-width:1" />
     <line x1="141" y1="145" x2="142" y2="156" style="stroke:rgb(0,0,0);stroke-width:1" />
     <line x1="53" y1="144" x2="141" y2="145" style="stroke:rgb(0,0,0);stroke-width:1" />
     <line x1="32" y1="155" x2="142" y2="156" style="stroke:rgb(0,0,0);stroke-width:1" />
     <line x1="66" y1="55" x2="48" y2="43" style="stroke:rgb(0,0,0);stroke-width:1" />
     <line x1="53" y1="55" x2="32" y2="44" style="stroke:rgb(0,0,0);stroke-width:1" />
     <line x1="66" y1="55" x2="53" y2="55" style="stroke:rgb(0,0,0);stroke-width:1" />
     <line x1="48" y1="43" x2="32" y2="44" style="stroke:rgb(0,0,0);stroke-width:1" />
     <line x1="155" y1="54" x2="160" y2="42" style="stroke:rgb(0,0,0);stroke-width:1" />
     <line x1="141" y1="54" x2="142" y2="43" style="stroke:rgb(0,0,0);stroke-width:1" />
     <line x1="155" y1="54" x2="141" y2="54" style="stroke:rgb(0,0,0);stroke-width:1" />
     <line x1="160" y1="42" x2="142" y2="43" style="stroke:rgb(0,0,0);stroke-width:1" />
     <line x1="66" y1="55" x2="48" y2="43" style="stroke:rgb(0,0,0);stroke-width:1" />
     <line x1="155" y1="54" x2="160" y2="42" style="stroke:rgb(0,0,0);stroke-width:1" />
     <line x1="66" y1="55" x2="155" y2="54" style="stroke:rgb(0,0,0);stroke-width:1" />
     <line x1="48" y1="43" x2="160" y2="42" style="stroke:rgb(0,0,0);stroke-width:1" />
     <line x1="53" y1="55" x2="32" y2="44" style="stroke:rgb(0,0,0);stroke-width:1" />
     <line x1="141" y1="54" x2="142" y2="43" style="stroke:rgb(0,0,0);stroke-width:1" />
     <line x1="53" y1="55" x2="141" y2="54" style="stroke:rgb(0,0,0);stroke-width:1" />
     <line x1="32" y1="44" x2="142" y2="43" style="stroke:rgb(0,0,0);stroke-width:1" />
</svg>
