<?xml version="1.0" encoding="utf-8"?>
<svg xmlns="http://www.w3.org/2000/svg"
     xmlns:xlink="http://www.w3.org/1999/xlink"
     width="200" height="200">
     <line x1="66" y1="145" x2="44" y2="157" style="stroke:rgb(0,0,0);stroke-width:1" />
     <line x1="56" y1="143" x2="33" y2="153" style="stroke:rgb(0,0,0);stroke-width:1" />
     <line x1="66" y1="145" x2="56" y2="143" style="stroke:rgb(0,0,0);stroke-width:1" />
     <line x1="44" y1="157" x2="33" y2="153" style="stroke:rgb(0,0,0);stroke-width:1" />
     <line x1="66" y1="54" x2="44" y2="42" style="stroke:rgb(0,0,0);stroke-width:1" />
     <line x1="56" y1="56" x2="33" y2="46" style="stroke:rgb(0,0,0);stroke-width:1" />
     <line x1="66" y1="54" x2="56" y2="56" style="stroke:rgb(0,0,0);stroke-width:1" />
     <line x1="44" y1="42" x2="33" y2="46" style="stroke:rgb(0,0,0);stroke-width:1" />
     <line x1="66" y1="145" x2="44" y2="157" style="stroke:rgb(0,0,0);stroke-width:1" />
     <line x1="66" y1="54" x2="44" y2="42" style="stroke:rgb(0,0,0);stroke-width:1" />
     <line x1="66" y1="145" x2="66" y2="54" style="stroke:rgb(0,0,0);stroke-width:1" />
     <line x1="44" y1="157" x2="44" y2="42" style="stroke:rgb(0,0,0);stroke-width:1" />
     <line x1="56" y1="143" x2="33" y2="153" style="stroke:rgb(0,0,0);stroke-width:1" />
     <line x1="56" y1="56" x2="33" y2="46" style="stroke:rgb(0,0,0);stroke-width:1" />
     <line x1="56" y1="143" x2="56" y2="56" style="stroke:rgb(0,0,0);stroke-width:1" />
     <line x1="33" y1="153" x2="33" y2="46" style="stroke:rgb(0,0,0);stroke-width:1" />
     <line x1="157" y1="146" x2="158" y2="158" style="stroke:rgb(0,0,0);stroke-width:1" />
     <line x1="142" y1="144" x2="140" y2="154" style="stroke:rgb(0,0,0);stroke-width:1" />
     <line x1="157" y1="146" x2="142" y2="144" style="stroke:rgb(0,0,0);stroke-width:1" />
     <line x1="158" y1="158" x2="140" y2="154" style="stroke:rgb(0,0,0);stroke-width:1" />
     <line x1="157" y1="53" x2="158" y2="41" style="stroke:rgb(0,0,0);stroke-width:1" />
     <line x1="142" y1="55" x2="140" y2="45" style="stroke:rgb(0,0,0);stroke-width:1" />
     <line x1="157" y1="53" x2="142" y2="55" style="stroke:rgb(0,0,0);stroke-width:1" />
     <line x1="158" y1="41" x2="140" y2="45" style="stroke:rgb(0,0,0);stroke-width:1" />
     <line x1="157" y1="146" x2="158" y2="158" style="stroke:rgb(0,0,0);stroke-width:1" />
     <line x1="157" y1="53" x2="158" y2="41" style="stroke:rgb(0,0,0);stroke-width:1" />
     <line x1="157" y1="146" x2="157" y2="53" style="stroke:rgb(0,0,0);stroke-width:1" />
     <line x1="158" y1="158" x2="158" y2="41" style="stroke:rgb(0,0,0);stroke-width:1" />
     <line x1="142" y1="144" x2="140" y2="154" style="stroke:rgb(0,0,0);stroke-width:1" />
     <line x1="142" y1="55" x2="140" y2="45" style="stroke:rgb(0,0,0);stroke-width:1" />
     <line x1="142" y1="144" x2="142" y2="55" style="stroke:rgb(0,0,0);stroke-width:1" />
     <line x1="140" y1="154" x2="140" y2="45" style="stroke:rgb(0,0,0);stroke-width:1" />
     <line x1="66" y1="145" x2="44" y2="157" style="stroke:rgb(0,0,0);stroke-width:1" />
     <line x1="56" y1="143" x2="33" y2="153" style="stroke:rgb(0,0,0);stroke-width:1" />
     <line x1="66" y1="145" x2="56" y2="143" style="stroke:rgb(0,0,0);stroke-width:1" />
     <line x1="44" y1="157" x2="33" y2="153" style="stroke:rgb(0,0,0);stroke-width:1" />
     <line x1="157" y1="146" x2="158" y2="158" style="stroke:rgb(0,0,0);stroke-width:1" />
     <line x1="142" y1="144" x2="140" y2="154" style="stroke:rgb(0,0,0);stroke-width:1" />
     <line x1="157" y1="146" x2="142" y2="144" style="stroke:rgb(0,0,0);stroke-width:1" />
     <line x1="158" y1="158" x2="140" y2="154" style="stroke:rgb(0,0,0);stroke-width:1" />
     <line x1="66" y1="145" x2="44" y2="157" style="stroke:rgb(0,0,0);stroke-width:1" />
     <line x1="157" y1="146" x2="158" y2="158" style="stroke:rgb(0,0,0);stroke-width:1" />
     <line x1="66" y1="145" x2="157" y2="146" style="stroke:rgb(0,0,0);stroke-width:1" />
     <line x1="44" y1="157" x2="158" y2="158" style="stroke:rgb(0,0,0);stroke-width:1" />
     <line x1="56" y1="143" x2="33" y2="153" style="stroke:rgb(0,0,0);stroke-width:1" />
     <line x1="142" y1="144" x2="140" y2="154" style="stroke:rgb(0,0,0);stroke-width:1" />
     <line x1="56" y1="143" x2="142" y2="144" style="stroke:rgb(0,0,0);stroke-width:1" />
     <line x1="33" y1="153" x2="140" y2="154" style="stroke:rgb(0,0,0);stroke-width:1" />
     <line x1="66" y1="54" x2="44" y2="42" style="stroke:rgb(0,0,0);stroke-width:1" />
     <line x1="56" y1="56" x2="33" y2="46" style="stroke:rgb(0,0,0);stroke-width:1" />
     <line x1="66" y1="54" x2="56" y2="56" style="stroke:rgb(0,0,0);stroke-width:1" />
     <line x1="44" y1="42" x2="33" y2="46" style="stroke:rgb(0,0,0);stroke-width:1" />
     <line x1="157" y1="53" x2="158" y2="41" style="stroke:rgb(0,0,0);stroke-width:1" />
     <line x1="142" y1="55" x2="140" y2="45" style="stroke:rgb(0,0,0);stroke-width:1" />
     <line x1="157" y1="53" x2="142" y2="55" style="stroke:rgb(0,0,0);stroke-width:1" />
     <line x1="158" y1="41" x2="140" y2="45" style="stroke:rgb(0,0,0);stroke-width:1" />
     <line x1="66" y1="54" x2="44" y2="42" style="stroke:rgb(0,0,0);stroke-width:1" />
     <line x1="157" y1="53" x2="158" y2="41" style="stroke:rgb(0,0,0);stroke-width:1" />
     <line x1="66" y1="54" x2="157" y2="53" style="stroke:rgb(0,0,0);stroke-width:1" />
     <line x1="44" y1="42" x2="158" y2="41" style="stroke:rgb(0,0,0);stroke-width:1" />
     <line x1="56" y1="56" x2="33" y2="46" style="stroke:rgb(0,0,0);stroke-width:1" />
     <line x1="142" y1="55" x2="140" y2="45" style="stroke:rgb(0,0,0);stroke-width:1" />
     <line x1="56" y1="56" x2="142" y2="55" style="stroke:rgb(0,0,0);stroke-width:1" />
     <line x1="33" y1="46" x2="140" y2="45" style="stroke:rgb(0,0,0);stroke-width:1" />
</svg>
