<?xml version="1.0" encoding="utf-8"?>
<svg xmlns="http://www.w3.org/2000/svg"
     xmlns:xlink="http://www.w3.org/1999/xlink"
     width="200" height="200">
     <line x1="65" y1="146" x2="41" y2="158" style="stroke:rgb(0,0,0);stroke-width:1" />
     <line x1="58" y1="143" x2="35" y2="152" style="stroke:rgb(0,0,0);stroke-width:1" />
     <line x1="65" y1="146" x2="58" y2="143" style="stroke:rgb(0,0,0);stroke-width:1" />
     <line x1="41" y1="158" x2="35" y2="152" style="stroke:rgb(0,0,0);stroke-width:1" />
     <line x1="65" y1="53" x2="41" y2="41" style="stroke:rgb(0,0,0);stroke-width:1" />
     <line x1="58" y1="56" x2="35" y2="47" style="stroke:rgb(0,0,0);stroke-width:1" />
     <line x1="65" y1="53" x2="58" y2="56" style="stroke:rgb(0,0,0);stroke-width:1" />
     <line x1="41" y1="41" x2="35" y2="47" style="stroke:rgb(0,0,0);stroke-width:1" />
     <line x1="65" y1="146" x2="41" y2="158" style="stroke:rgb(0,0,0);stroke-width:1" />
     <line x1="65" y1="53" x2="41" y2="41" style="stroke:rgb(0,0,0);stroke-width:1" />
     <line x1="65" y1="146" x2="65" y2="53" style="stroke:rgb(0,0,0);stroke-width:1" />
     <line x1="41" y1="158" x2="41" y2="41" style="stroke:rgb(0,0,0);stroke-width:1" />
     <line x1="58" y1="143" x2="35" y2="152" style="stroke:rgb(0,0,0);stroke-width:1" />
     <line x1="58" y1="56" x2="35" y2="47" style="stroke:rgb(0,0,0);stroke-width:1" />
     <line x1="58" y1="143" x2="58" y2="56" style="stroke:rgb(0,0,0);stroke-width:1" />
     <line x1="35" y1="152" x2="35" y2="47" style="stroke:rgb(0,0,0);stroke-width:1" />
     <line x1="158" y1="147" x2="157" y2="159" style="stroke:rgb(0,0,0);stroke-width:1" />
     <line x1="144" y1="143" x2="139" y2="153" style="stroke:rgb(0,0,0);stroke-width:1" />
     <line x1="158" y1="147" x2="144" y2="143" style="stroke:rgb(0,0,0);stroke-width:1" />
     <line x1="157" y1="159" x2="139" y2="153" style="stroke:rgb(0,0,0);stroke-width:1" />
     <line x1="158" y1="52" x2="157" y2="40" style="stroke:rgb(0,0,0);stroke-width:1" />
     <line x1="144" y1="56" x2="139" y2="46" style="stroke:rgb(0,0,0);stroke-width:1" />
     <line x1="158" y1="52" x2="144" y2="56" style="stroke:rgb(0,0,0);stroke-width:1" />
     <line x1="157" y1="40" x2="139" y2="46" style="stroke:rgb(0,0,0);stroke-width:1" />
     <line x1="158" y1="147" x2="157" y2="159" style="stroke:rgb(0,0,0);stroke-width:1" />
     <line x1="158" y1="52" x2="157" y2="40" style="stroke:rgb(0,0,0);stroke-width:1" />
     <line x1="158" y1="147" x2="158" y2="52" style="stroke:rgb(0,0,0);stroke-width:1" />
     <line x1="157" y1="159" x2="157" y2="40" style="stroke:rgb(0,0,0);stroke-width:1" />
     <line x1="144" y1="143" x2="139" y2="153" style="stroke:rgb(0,0,0);stroke-width:1" />
     <line x1="144" y1="56" x2="139" y2="46" style="stroke:rgb(0,0,0);stroke-width:1" />
     <line x1="144" y1="143" x2="144" y2="56" style="stroke:rgb(0,0,0);stroke-width:1" />
     <line x1="139" y1="153" x2="139" y2="46" style="stroke:rgb(0,0,0);stroke-width:1" />
     <line x1="65" y1="146" x2="41" y2="158" style="stroke:rgb(0,0,0);stroke-width:1" />
     <line x1="58" y1="143" x2="35" y2="152" style="stroke:rgb(0,0,0);stroke-width:1" />
     <line x1="65" y1="146" x2="58" y2="143" style="stroke:rgb(0,0,0);stroke-width:1" />
     <line x1="41" y1="158" x2="35" y2="152" style="stroke:rgb(0,0,0);stroke-width:1" />
     <line x1="158" y1="147" x2="157" y2="159" style="stroke:rgb(0,0,0);stroke-width:1" />
     <line x1="144" y1="143" x2="139" y2="153" style="stroke:rgb(0,0,0);stroke-width:1" />
     <line x1="158" y1="147" x2="144" y2="143" style="stroke:rgb(0,0,0);stroke-width:1" />
     <line x1="157" y1="159" x2="139" y2="153" style="stroke:rgb(0,0,0);stroke-width:1" />
     <line x1="65" y1="146" x2="41" y2="158" style="stroke:rgb(0,0,0);stroke-width:1" />
     <line x1="158" y1="147" x2="157" y2="159" style="stroke:rgb(0,0,0);stroke-width:1" />
     <line x1="65" y1="146" x2="158" y2="147" style="stroke:rgb(0,0,0);stroke-width:1" />
     <line x1="41" y1="158" x2="157" y2="159" style="stroke:rgb(0,0,0);stroke-width:1" />
     <line x1="58" y1="143" x2="35" y2="152" style="stroke:rgb(0,0,0);stroke-width:1" />
     <line x1="144" y1="143" x2="139" y2="153" style="stroke:rgb(0,0,0);stroke-width:1" />
     <line x1="58" y1="143" x2="144" y2="143" style="stroke:rgb(0,0,0);stroke-width:1" />
     <line x1="35" y1="152" x2="139" y2="153" style="stroke:rgb(0,0,0);stroke-width:1" />
     <line x1="65" y1="53" x2="41" y2="41" style="stroke:rgb(0,0,0);stroke-width:1" />
     <line x1="58" y1="56" x2="35" y2="47" style="stroke:rgb(0,0,0);stroke-width:1" />
     <line x1="65" y1="53" x2="58" y2="56" style="stroke:rgb(0,0,0);stroke-width:1" />
     <line x1="41" y1="41" x2="35" y2="47" style="stroke:rgb(0,0,0);stroke-width:1" />
     <line x1="158" y1="52" x2="157" y2="40" style="stroke:rgb(0,0,0);stroke-width:1" />
     <line x1="144" y1="56" x2="139" y2="46" style="stroke:rgb(0,0,0);stroke-width:1" />
     <line x1="158" y1="52" x2="144" y2="56" style="stroke:rgb(0,0,0);stroke-width:1" />
     <line x1="157" y1="40" x2="139" y2="46" style="stroke:rgb(0,0,0);stroke-width:1" />
     <line x1="65" y1="53" x2="41" y2="41" style="stroke:rgb(0,0,0);stroke-width:1" />
     <line x1="158" y1="52" x2="157" y2="40" style="stroke:rgb(0,0,0);stroke-width:1" />
     <line x1="65" y1="53" x2="158" y2="52" style="stroke:rgb(0,0,0);stroke-width:1" />
     <line x1="41" y1="41" x2="157" y2="40" style="stroke:rgb(0,0,0);stroke-width:1" />
     <line x1="58" y1="56" x2="35" y2="47" style="stroke:rgb(0,0,0);stroke-width:1" />
     <line x1="144" y1="56" x2="139" y2="46" style="stroke:rgb(0,0,0);stroke-width:1" />
     <line x1="58" y1="56" x2="144" y2="56" style="stroke:rgb(0,0,0);stroke-width:1" />
     <line x1="35" y1="47" x2="139" y2="46" style="stroke:rgb(0,0,0);stroke-width:1" />
</svg>
