<?xml version="1.0" encoding="utf-8"?>
<svg xmlns="http://www.w3.org/2000/svg"
     xmlns:xlink="http://www.w3.org/1999/xlink"
     width="200" height="200">
     <line x1="62" y1="149" x2="36" y2="158" style="stroke:rgb(0,0,0);stroke-width:1" />
     <line x1="62" y1="142" x2="39" y2="149" style="stroke:rgb(0,0,0);stroke-width:1" />
     <line x1="62" y1="149" x2="62" y2="142" style="stroke:rgb(0,0,0);stroke-width:1" />
     <line x1="36" y1="158" x2="39" y2="149" style="stroke:rgb(0,0,0);stroke-width:1" />
     <line x1="62" y1="50" x2="36" y2="41" style="stroke:rgb(0,0,0);stroke-width:1" />
     <line x1="62" y1="57" x2="39" y2="50" style="stroke:rgb(0,0,0);stroke-width:1" />
     <line x1="62" y1="50" x2="62" y2="57" style="stroke:rgb(0,0,0);stroke-width:1" />
     <line x1="36" y1="41" x2="39" y2="50" style="stroke:rgb(0,0,0);stroke-width:1" />
     <line x1="62" y1="149" x2="36" y2="158" style="stroke:rgb(0,0,0);stroke-width:1" />
     <line x1="62" y1="50" x2="36" y2="41" style="stroke:rgb(0,0,0);stroke-width:1" />
     <line x1="62" y1="149" x2="62" y2="50" style="stroke:rgb(0,0,0);stroke-width:1" />
     <line x1="36" y1="158" x2="36" y2="41" style="stroke:rgb(0,0,0);stroke-width:1" />
     <line x1="62" y1="142" x2="39" y2="149" style="stroke:rgb(0,0,0);stroke-width:1" />
     <line x1="62" y1="57" x2="39" y2="50" style="stroke:rgb(0,0,0);stroke-width:1" />
     <line x1="62" y1="142" x2="62" y2="57" style="stroke:rgb(0,0,0);stroke-width:1" />
     <line x1="39" y1="149" x2="39" y2="50" style="stroke:rgb(0,0,0);stroke-width:1" />
     <line x1="160" y1="150" x2="152" y2="159" style="stroke:rgb(0,0,0);stroke-width:1" />
     <line x1="147" y1="143" x2="138" y2="150" style="stroke:rgb(0,0,0);stroke-width:1" />
     <line x1="160" y1="150" x2="147" y2="143" style="stroke:rgb(0,0,0);stroke-width:1" />
     <line x1="152" y1="159" x2="138" y2="150" style="stroke:rgb(0,0,0);stroke-width:1" />
     <line x1="160" y1="49" x2="152" y2="40" style="stroke:rgb(0,0,0);stroke-width:1" />
     <line x1="147" y1="56" x2="138" y2="49" style="stroke:rgb(0,0,0);stroke-width:1" />
     <line x1="160" y1="49" x2="147" y2="56" style="stroke:rgb(0,0,0);stroke-width:1" />
     <line x1="152" y1="40" x2="138" y2="49" style="stroke:rgb(0,0,0);stroke-width:1" />
     <line x1="160" y1="150" x2="152" y2="159" style="stroke:rgb(0,0,0);stroke-width:1" />
     <line x1="160" y1="49" x2="152" y2="40" style="stroke:rgb(0,0,0);stroke-width:1" />
     <line x1="160" y1="150" x2="160" y2="49" style="stroke:rgb(0,0,0);stroke-width:1" />
     <line x1="152" y1="159" x2="152" y2="40" style="stroke:rgb(0,0,0);stroke-width:1" />
     <line x1="147" y1="143" x2="138" y2="150" style="stroke:rgb(0,0,0);stroke-width:1" />
     <line x1="147" y1="56" x2="138" y2="49" style="stroke:rgb(0,0,0);stroke-width:1" />
     <line x1="147" y1="143" x2="147" y2="56" style="stroke:rgb(0,0,0);stroke-width:1" />
     <line x1="138" y1="150" x2="138" y2="49" style="stroke:rgb(0,0,0);stroke-width:1" />
     <line x1="62" y1="149" x2="36" y2="158" style="stroke:rgb(0,0,0);stroke-width:1" />
     <line x1="62" y1="142" x2="39" y2="149" style="stroke:rgb(0,0,0);stroke-width:1" />
     <line x1="62" y1="149" x2="62" y2="142" style="stroke:rgb(0,0,0);stroke-width:1" />
     <line x1="36" y1="158" x2="39" y2="149" style="stroke:rgb(0,0,0);stroke-width:1" />
     <line x1="160" y1="150" x2="152" y2="159" style="stroke:rgb(0,0,0);stroke-width:1" />
     <line x1="147" y1="143" x2="138" y2="150" style="stroke:rgb(0,0,0);stroke-width:1" />
     <line x1="160" y1="150" x2="147" y2="143" style="stroke:rgb(0,0,0);stroke-width:1" />
     <line x1="152" y1="159" x2="138" y2="150" style="stroke:rgb(0,0,0);stroke-width:1" />
     <line x1="62" y1="149" x2="36" y2="158" style="stroke:rgb(0,0,0);stroke-width:1" />
     <line x1="160" y1="150" x2="152" y2="159" style="stroke:rgb(0,0,0);stroke-width:1" />
     <line x1="62" y1="149" x2="160" y2="150" style="stroke:rgb(0,0,0);stroke-width:1" />
     <line x1="36" y1="158" x2="152" y2="159" style="stroke:rgb(0,0,0);stroke-width:1" />
     <line x1="62" y1="142" x2="39" y2="149" style="stroke:rgb(0,0,0);stroke-width:1" />
     <line x1="147" y1="143" x2="138" y2="150" style="stroke:rgb(0,0,0);stroke-width:1" />
     <line x1="62" y1="142" x2="147" y2="143" style="stroke:rgb(0,0,0);stroke-width:1" />
     <line x1="39" y1="149" x2="138" y2="150" style="stroke:rgb(0,0,0);stroke-width:1" />
     <line x1="62" y1="50" x2="36" y2="41" style="stroke:rgb(0,0,0);stroke-width:1" />
     <line x1="62" y1="57" x2="39" y2="50" style="stroke:rgb(0,0,0);stroke-width:1" />
     <line x1="62" y1="50" x2="62" y2="57" style="stroke:rgb(0,0,0);stroke-width:1" />
     <line x1="36" y1="41" x2="39" y2="50" style="stroke:rgb(0,0,0);stroke-width:1" />
     <line x1="160" y1="49" x2="152" y2="40" style="stroke:rgb(0,0,0);stroke-width:1" />
     <line x1="147" y1="56" x2="138" y2="49" style="stroke:rgb(0,0,0);stroke-width:1" />
     <line x1="160" y1="49" x2="147" y2="56" style="stroke:rgb(0,0,0);stroke-width:1" />
     <line x1="152" y1="40" x2="138" y2="49" style="stroke:rgb(0,0,0);stroke-width:1" />
     <line x1="62" y1="50" x2="36" y2="41" style="stroke:rgb(0,0,0);stroke-width:1" />
     <line x1="160" y1="49" x2="152" y2="40" style="stroke:rgb(0,0,0);stroke-width:1" />
     <line x1="62" y1="50" x2="160" y2="49" style="stroke:rgb(0,0,0);stroke-width:1" />
     <line x1="36" y1="41" x2="152" y2="40" style="stroke:rgb(0,0,0);stroke-width:1" />
     <line x1="62" y1="57" x2="39" y2="50" style="stroke:rgb(0,0,0);stroke-width:1" />
     <line x1="147" y1="56" x2="138" y2="49" style="stroke:rgb(0,0,0);stroke-width:1" />
     <line x1="62" y1="57" x2="147" y2="56" style="stroke:rgb(0,0,0);stroke-width:1" />
     <line x1="39" y1="50" x2="138" y2="49" style="stroke:rgb(0,0,0);stroke-width:1" />
</svg>
