<?xml version="1.0" encoding="utf-8"?>
<svg xmlns="http://www.w3.org/2000/svg"
     xmlns:xlink="http://www.w3.org/1999/xlink"
     width="200" height="200">
     <line x1="60" y1="150" x2="34" y2="158" style="stroke:rgb(0,0,0);stroke-width:1" />
     <line x1="63" y1="142" x2="42" y2="148" style="stroke:rgb(0,0,0);stroke-width:1" />
     <line x1="60" y1="150" x2="63" y2="142" style="stroke:rgb(0,0,0);stroke-width:1" />
     <line x1="34" y1="158" x2="42" y2="148" style="stroke:rgb(0,0,0);stroke-width:1" />
     <line x1="60" y1="49" x2="34" y2="41" style="stroke:rgb(0,0,0);stroke-width:1" />
     <line x1="63" y1="57" x2="42" y2="51" style="stroke:rgb(0,0,0);stroke-width:1" />
     <line x1="60" y1="49" x2="63" y2="57" style="stroke:rgb(0,0,0);stroke-width:1" />
     <line x1="34" y1="41" x2="42" y2="51" style="stroke:rgb(0,0,0);stroke-width:1" />
     <line x1="60" y1="150" x2="34" y2="158" style="stroke:rgb(0,0,0);stroke-width:1" />
     <line x1="60" y1="49" x2="34" y2="41" style="stroke:rgb(0,0,0);stroke-width:1" />
     <line x1="60" y1="150" x2="60" y2="49" style="stroke:rgb(0,0,0);stroke-width:1" />
     <line x1="34" y1="158" x2="34" y2="41" style="stroke:rgb(0,0,0);stroke-width:1" />
     <line x1="63" y1="142" x2="42" y2="148" style="stroke:rgb(0,0,0);stroke-width:1" />
     <line x1="63" y1="57" x2="42" y2="51" style="stroke:rgb(0,0,0);stroke-width:1" />
     <line x1="63" y1="142" x2="63" y2="57" style="stroke:rgb(0,0,0);stroke-width:1" />
     <line x1="42" y1="148" x2="42" y2="51" style="stroke:rgb(0,0,0);stroke-width:1" />
     <line x1="161" y1="151" x2="150" y2="159" style="stroke:rgb(0,0,0);stroke-width:1" />
     <line x1="149" y1="143" x2="138" y2="149" style="stroke:rgb(0,0,0);stroke-width:1" />
     <line x1="161" y1="151" x2="149" y2="143" style="stroke:rgb(0,0,0);stroke-width:1" />
     <line x1="150" y1="159" x2="138" y2="149" style="stroke:rgb(0,0,0);stroke-width:1" />
     <line x1="161" y1="48" x2="150" y2="40" style="stroke:rgb(0,0,0);stroke-width:1" />
     <line x1="149" y1="56" x2="138" y2="50" style="stroke:rgb(0,0,0);stroke-width:1" />
     <line x1="161" y1="48" x2="149" y2="56" style="stroke:rgb(0,0,0);stroke-width:1" />
     <line x1="150" y1="40" x2="138" y2="50" style="stroke:rgb(0,0,0);stroke-width:1" />
     <line x1="161" y1="151" x2="150" y2="159" style="stroke:rgb(0,0,0);stroke-width:1" />
     <line x1="161" y1="48" x2="150" y2="40" style="stroke:rgb(0,0,0);stroke-width:1" />
     <line x1="161" y1="151" x2="161" y2="48" style="stroke:rgb(0,0,0);stroke-width:1" />
     <line x1="150" y1="159" x2="150" y2="40" style="stroke:rgb(0,0,0);stroke-width:1" />
     <line x1="149" y1="143" x2="138" y2="149" style="stroke:rgb(0,0,0);stroke-width:1" />
     <line x1="149" y1="56" x2="138" y2="50" style="stroke:rgb(0,0,0);stroke-width:1" />
     <line x1="149" y1="143" x2="149" y2="56" style="stroke:rgb(0,0,0);stroke-width:1" />
     <line x1="138" y1="149" x2="138" y2="50" style="stroke:rgb(0,0,0);stroke-width:1" />
     <line x1="60" y1="150" x2="34" y2="158" style="stroke:rgb(0,0,0);stroke-width:1" />
     <line x1="63" y1="142" x2="42" y2="148" style="stroke:rgb(0,0,0);stroke-width:1" />
     <line x1="60" y1="150" x2="63" y2="142" style="stroke:rgb(0,0,0);stroke-width:1" />
     <line x1="34" y1="158" x2="42" y2="148" style="stroke:rgb(0,0,0);stroke-width:1" />
     <line x1="161" y1="151" x2="150" y2="159" style="stroke:rgb(0,0,0);stroke-width:1" />
     <line x1="149" y1="143" x2="138" y2="149" style="stroke:rgb(0,0,0);stroke-width:1" />
     <line x1="161" y1="151" x2="149" y2="143" style="stroke:rgb(0,0,0);stroke-width:1" />
     <line x1="150" y1="159" x2="138" y2="149" style="stroke:rgb(0,0,0);stroke-width:1" />
     <line x1="60" y1="150" x2="34" y2="158" style="stroke:rgb(0,0,0);stroke-width:1" />
     <line x1="161" y1="151" x2="150" y2="159" style="stroke:rgb(0,0,0);stroke-width:1" />
     <line x1="60" y1="150" x2="161" y2="151" style="stroke:rgb(0,0,0);stroke-width:1" />
     <line x1="34" y1="158" x2="150" y2="159" style="stroke:rgb(0,0,0);stroke-width:1" />
     <line x1="63" y1="142" x2="42" y2="148" style="stroke:rgb(0,0,0);stroke-width:1" />
     <line x1="149" y1="143" x2="138" y2="149" style="stroke:rgb(0,0,0);stroke-width:1" />
     <line x1="63" y1="142" x2="149" y2="143" style="stroke:rgb(0,0,0);stroke-width:1" />
     <line x1="42" y1="148" x2="138" y2="149" style="stroke:rgb(0,0,0);stroke-width:1" />
     <line x1="60" y1="49" x2="34" y2="41" style="stroke:rgb(0,0,0);stroke-width:1" />
     <line x1="63" y1="57" x2="42" y2="51" style="stroke:rgb(0,0,0);stroke-width:1" />
     <line x1="60" y1="49" x2="63" y2="57" style="stroke:rgb(0,0,0);stroke-width:1" />
     <line x1="34" y1="41" x2="42" y2="51" style="stroke:rgb(0,0,0);stroke-width:1" />
     <line x1="161" y1="48" x2="150" y2="40" style="stroke:rgb(0,0,0);stroke-width:1" />
     <line x1="149" y1="56" x2="138" y2="50" style="stroke:rgb(0,0,0);stroke-width:1" />
     <line x1="161" y1="48" x2="149" y2="56" style="stroke:rgb(0,0,0);stroke-width:1" />
     <line x1="150" y1="40" x2="138" y2="50" style="stroke:rgb(0,0,0);stroke-width:1" />
     <line x1="60" y1="49" x2="34" y2="41" style="stroke:rgb(0,0,0);stroke-width:1" />
     <line x1="161" y1="48" x2="150" y2="40" style="stroke:rgb(0,0,0);stroke-width:1" />
     <line x1="60" y1="49" x2="161" y2="48" style="stroke:rgb(0,0,0);stroke-width:1" />
     <line x1="34" y1="41" x2="150" y2="40" style="stroke:rgb(0,0,0);stroke-width:1" />
     <line x1="63" y1="57" x2="42" y2="51" style="stroke:rgb(0,0,0);stroke-width:1" />
     <line x1="149" y1="56" x2="138" y2="50" style="stroke:rgb(0,0,0);stroke-width:1" />
     <line x1="63" y1="57" x2="149" y2="56" style="stroke:rgb(0,0,0);stroke-width:1" />
     <line x1="42" y1="51" x2="138" y2="50" style="stroke:rgb(0,0,0);stroke-width:1" />
</svg>
