<?xml version="1.0" encoding="utf-8"?>
<svg xmlns="http://www.w3.org/2000/svg"
     xmlns:xlink="http://www.w3.org/1999/xlink"
     width="200" height="200">
     <line x1="57" y1="152" x2="32" y2="158" style="stroke:rgb(0,0,0);stroke-width:1" />
     <line x1="64" y1="143" x2="45" y2="147" style="stroke:rgb(0,0,0);stroke-width:1" />
     <line x1="57" y1="152" x2="64" y2="143" style="stroke:rgb(0,0,0);stroke-width:1" />
     <line x1="32" y1="158" x2="45" y2="147" style="stroke:rgb(0,0,0);stroke-width:1" />
     <line x1="57" y1="47" x2="32" y2="41" style="stroke:rgb(0,0,0);stroke-width:1" />
     <line x1="64" y1="56" x2="45" y2="52" style="stroke:rgb(0,0,0);stroke-width:1" />
     <line x1="57" y1="47" x2="64" y2="56" style="stroke:rgb(0,0,0);stroke-width:1" />
     <line x1="32" y1="41" x2="45" y2="52" style="stroke:rgb(0,0,0);stroke-width:1" />
     <line x1="57" y1="152" x2="32" y2="158" style="stroke:rgb(0,0,0);stroke-width:1" />
     <line x1="57" y1="47" x2="32" y2="41" style="stroke:rgb(0,0,0);stroke-width:1" />
     <line x1="57" y1="152" x2="57" y2="47" style="stroke:rgb(0,0,0);stroke-width:1" />
     <line x1="32" y1="158" x2="32" y2="41" style="stroke:rgb(0,0,0);stroke-width:1" />
     <line x1="64" y1="143" x2="45" y2="147" style="stroke:rgb(0,0,0);stroke-width:1" />
     <line x1="64" y1="56" x2="45" y2="52" style="stroke:rgb(0,0,0);stroke-width:1" />
     <line x1="64" y1="143" x2="64" y2="56" style="stroke:rgb(0,0,0);stroke-width:1" />
     <line x1="45" y1="147" x2="45" y2="52" style="stroke:rgb(0,0,0);stroke-width:1" />
     <line x1="161" y1="153" x2="148" y2="159" style="stroke:rgb(0,0,0);stroke-width:1" />
     <line x1="150" y1="143" x2="138" y2="147" style="stroke:rgb(0,0,0);stroke-width:1" />
     <line x1="161" y1="153" x2="150" y2="143" style="stroke:rgb(0,0,0);stroke-width:1" />
     <line x1="148" y1="159" x2="138" y2="147" style="stroke:rgb(0,0,0);stroke-width:1" />
     <line x1="161" y1="46" x2="148" y2="40" style="stroke:rgb(0,0,0);stroke-width:1" />
     <line x1="150" y1="56" x2="138" y2="52" style="stroke:rgb(0,0,0);stroke-width:1" />
     <line x1="161" y1="46" x2="150" y2="56" style="stroke:rgb(0,0,0);stroke-width:1" />
     <line x1="148" y1="40" x2="138" y2="52" style="stroke:rgb(0,0,0);stroke-width:1" />
     <line x1="161" y1="153" x2="148" y2="159" style="stroke:rgb(0,0,0);stroke-width:1" />
     <line x1="161" y1="46" x2="148" y2="40" style="stroke:rgb(0,0,0);stroke-width:1" />
     <line x1="161" y1="153" x2="161" y2="46" style="stroke:rgb(0,0,0);stroke-width:1" />
     <line x1="148" y1="159" x2="148" y2="40" style="stroke:rgb(0,0,0);stroke-width:1" />
     <line x1="150" y1="143" x2="138" y2="147" style="stroke:rgb(0,0,0);stroke-width:1" />
     <line x1="150" y1="56" x2="138" y2="52" style="stroke:rgb(0,0,0);stroke-width:1" />
     <line x1="150" y1="143" x2="150" y2="56" style="stroke:rgb(0,0,0);stroke-width:1" />
     <line x1="138" y1="147" x2="138" y2="52" style="stroke:rgb(0,0,0);stroke-width:1" />
     <line x1="57" y1="152" x2="32" y2="158" style="stroke:rgb(0,0,0);stroke-width:1" />
     <line x1="64" y1="143" x2="45" y2="147" style="stroke:rgb(0,0,0);stroke-width:1" />
     <line x1="57" y1="152" x2="64" y2="143" style="stroke:rgb(0,0,0);stroke-width:1" />
     <line x1="32" y1="158" x2="45" y2="147" style="stroke:rgb(0,0,0);stroke-width:1" />
     <line x1="161" y1="153" x2="148" y2="159" style="stroke:rgb(0,0,0);stroke-width:1" />
     <line x1="150" y1="143" x2="138" y2="147" style="stroke:rgb(0,0,0);stroke-width:1" />
     <line x1="161" y1="153" x2="150" y2="143" style="stroke:rgb(0,0,0);stroke-width:1" />
     <line x1="148" y1="159" x2="138" y2="147" style="stroke:rgb(0,0,0);stroke-width:1" />
     <line x1="57" y1="152" x2="32" y2="158" style="stroke:rgb(0,0,0);stroke-width:1" />
     <line x1="161" y1="153" x2="148" y2="159" style="stroke:rgb(0,0,0);stroke-width:1" />
     <line x1="57" y1="152" x2="161" y2="153" style="stroke:rgb(0,0,0);stroke-width:1" />
     <line x1="32" y1="158" x2="148" y2="159" style="stroke:rgb(0,0,0);stroke-width:1" />
     <line x1="64" y1="143" x2="45" y2="147" style="stroke:rgb(0,0,0);stroke-width:1" />
     <line x1="150" y1="143" x2="138" y2="147" style="stroke:rgb(0,0,0);stroke-width:1" />
     <line x1="64" y1="143" x2="150" y2="143" style="stroke:rgb(0,0,0);stroke-width:1" />
     <line x1="45" y1="147" x2="138" y2="147" style="stroke:rgb(0,0,0);stroke-width:1" />
     <line x1="57" y1="47" x2="32" y2="41" style="stroke:rgb(0,0,0);stroke-width:1" />
     <line x1="64" y1="56" x2="45" y2="52" style="stroke:rgb(0,0,0);stroke-width:1" />
     <line x1="57" y1="47" x2="64" y2="56" style="stroke:rgb(0,0,0);stroke-width:1" />
     <line x1="32" y1="41" x2="45" y2="52" style="stroke:rgb(0,0,0);stroke-width:1" />
     <line x1="161" y1="46" x2="148" y2="40" style="stroke:rgb(0,0,0);stroke-width:1" />
     <line x1="150" y1="56" x2="138" y2="52" style="stroke:rgb(0,0,0);stroke-width:1" />
     <line x1="161" y1="46" x2="150" y2="56" style="stroke:rgb(0,0,0);stroke-width:1" />
     <line x1="148" y1="40" x2="138" y2="52" style="stroke:rgb(0,0,0);stroke-width:1" />
     <line x1="57" y1="47" x2="32" y2="41" style="stroke:rgb(0,0,0);stroke-width:1" />
     <line x1="161" y1="46" x2="148" y2="40" style="stroke:rgb(0,0,0);stroke-width:1" />
     <line x1="57" y1="47" x2="161" y2="46" style="stroke:rgb(0,0,0);stroke-width:1" />
     <line x1="32" y1="41" x2="148" y2="40" style="stroke:rgb(0,0,0);stroke-width:1" />
     <line x1="64" y1="56" x2="45" y2="52" style="stroke:rgb(0,0,0);stroke-width:1" />
     <line x1="150" y1="56" x2="138" y2="52" style="stroke:rgb(0,0,0);stroke-width:1" />
     <line x1="64" y1="56" x2="150" y2="56" style="stroke:rgb(0,0,0);stroke-width:1" />
     <line x1="45" y1="52" x2="138" y2="52" style="stroke:rgb(0,0,0);stroke-width:1" />
</svg>
