<?xml version="1.0" encoding="utf-8"?>
<svg xmlns="http://www.w3.org/2000/svg"
     xmlns:xlink="http://www.w3.org/1999/xlink"
     width="1000" height="1000">
     <line x1="287" y1="771" x2="244" y2="802" style="stroke:rgb(0,0,0);stroke-width:1" />
     <line x1="171" y1="792" x2="109" y2="829" style="stroke:rgb(0,0,0);stroke-width:1" />
     <line x1="287" y1="771" x2="171" y2="792" style="stroke:rgb(0,0,0);stroke-width:1" />
     <line x1="244" y1="802" x2="109" y2="829" style="stroke:rgb(0,0,0);stroke-width:1" />
     <line x1="287" y1="228" x2="244" y2="197" style="stroke:rgb(0,0,0);stroke-width:1" />
     <line x1="171" y1="207" x2="109" y2="170" style="stroke:rgb(0,0,0);stroke-width:1" />
     <line x1="287" y1="228" x2="171" y2="207" style="stroke:rgb(0,0,0);stroke-width:1" />
     <line x1="244" y1="197" x2="109" y2="170" style="stroke:rgb(0,0,0);stroke-width:1" />
     <line x1="287" y1="771" x2="244" y2="802" style="stroke:rgb(0,0,0);stroke-width:1" />
     <line x1="287" y1="228" x2="244" y2="197" style="stroke:rgb(0,0,0);stroke-width:1" />
     <line x1="287" y1="771" x2="287" y2="228" style="stroke:rgb(0,0,0);stroke-width:1" />
     <line x1="244" y1="802" x2="244" y2="197" style="stroke:rgb(0,0,0);stroke-width:1" />
     <line x1="171" y1="792" x2="109" y2="829" style="stroke:rgb(0,0,0);stroke-width:1" />
     <line x1="171" y1="207" x2="109" y2="170" style="stroke:rgb(0,0,0);stroke-width:1" />
     <line x1="171" y1="792" x2="171" y2="207" style="stroke:rgb(0,0,0);stroke-width:1" />
     <line x1="109" y1="829" x2="109" y2="170" style="stroke:rgb(0,0,0);stroke-width:1" />
     <line x1="826" y1="775" x2="846" y2="808" style="stroke:rgb(0,0,0);stroke-width:1" />
     <line x1="750" y1="797" x2="763" y2="835" style="stroke:rgb(0,0,0);stroke-width:1" />
     <line x1="826" y1="775" x2="750" y2="797" style="stroke:rgb(0,0,0);stroke-width:1" />
     <line x1="846" y1="808" x2="763" y2="835" style="stroke:rgb(0,0,0);stroke-width:1" />
     <line x1="826" y1="224" x2="846" y2="191" style="stroke:rgb(0,0,0);stroke-width:1" />
     <line x1="750" y1="202" x2="763" y2="164" style="stroke:rgb(0,0,0);stroke-width:1" />
     <line x1="826" y1="224" x2="750" y2="202" style="stroke:rgb(0,0,0);stroke-width:1" />
     <line x1="846" y1="191" x2="763" y2="164" style="stroke:rgb(0,0,0);stroke-width:1" />
     <line x1="826" y1="775" x2="846" y2="808" style="stroke:rgb(0,0,0);stroke-width:1" />
     <line x1="826" y1="224" x2="846" y2="191" style="stroke:rgb(0,0,0);stroke-width:1" />
     <line x1="826" y1="775" x2="826" y2="224" style="stroke:rgb(0,0,0);stroke-width:1" />
     <line x1="846" y1="808" x2="846" y2="191" style="stroke:rgb(0,0,0);stroke-width:1" />
     <line x1="750" y1="797" x2="763" y2="835" style="stroke:rgb(0,0,0);stroke-width:1" />
     <line x1="750" y1="202" x2="763" y2="164" style="stroke:rgb(0,0,0);stroke-width:1" />
     <line x1="750" y1="797" x2="750" y2="202" style="stroke:rgb(0,0,0);stroke-width:1" />
     <line x1="763" y1="835" x2="763" y2="164" style="stroke:rgb(0,0,0);stroke-width:1" />
     <line x1="287" y1="771" x2="244" y2="802" style="stroke:rgb(0,0,0);stroke-width:1" />
     <line x1="171" y1="792" x2="109" y2="829" style="stroke:rgb(0,0,0);stroke-width:1" />
     <line x1="287" y1="771" x2="171" y2="792" style="stroke:rgb(0,0,0);stroke-width:1" />
     <line x1="244" y1="802" x2="109" y2="829" style="stroke:rgb(0,0,0);stroke-width:1" />
     <line x1="826" y1="775" x2="846" y2="808" style="stroke:rgb(0,0,0);stroke-width:1" />
     <line x1="750" y1="797" x2="763" y2="835" style="stroke:rgb(0,0,0);stroke-width:1" />
     <line x1="826" y1="775" x2="750" y2="797" style="stroke:rgb(0,0,0);stroke-width:1" />
     <line x1="846" y1="808" x2="763" y2="835" style="stroke:rgb(0,0,0);stroke-width:1" />
     <line x1="287" y1="771" x2="244" y2="802" style="stroke:rgb(0,0,0);stroke-width:1" />
     <line x1="826" y1="775" x2="846" y2="808" style="stroke:rgb(0,0,0);stroke-width:1" />
     <line x1="287" y1="771" x2="826" y2="775" style="stroke:rgb(0,0,0);stroke-width:1" />
     <line x1="244" y1="802" x2="846" y2="808" style="stroke:rgb(0,0,0);stroke-width:1" />
     <line x1="171" y1="792" x2="109" y2="829" style="stroke:rgb(0,0,0);stroke-width:1" />
     <line x1="750" y1="797" x2="763" y2="835" style="stroke:rgb(0,0,0);stroke-width:1" />
     <line x1="171" y1="792" x2="750" y2="797" style="stroke:rgb(0,0,0);stroke-width:1" />
     <line x1="109" y1="829" x2="763" y2="835" style="stroke:rgb(0,0,0);stroke-width:1" />
     <line x1="287" y1="228" x2="244" y2="197" style="stroke:rgb(0,0,0);stroke-width:1" />
     <line x1="171" y1="207" x2="109" y2="170" style="stroke:rgb(0,0,0);stroke-width:1" />
     <line x1="287" y1="228" x2="171" y2="207" style="stroke:rgb(0,0,0);stroke-width:1" />
     <line x1="244" y1="197" x2="109" y2="170" style="stroke:rgb(0,0,0);stroke-width:1" />
     <line x1="826" y1="224" x2="846" y2="191" style="stroke:rgb(0,0,0);stroke-width:1" />
     <line x1="750" y1="202" x2="763" y2="164" style="stroke:rgb(0,0,0);stroke-width:1" />
     <line x1="826" y1="224" x2="750" y2="202" style="stroke:rgb(0,0,0);stroke-width:1" />
     <line x1="846" y1="191" x2="763" y2="164" style="stroke:rgb(0,0,0);stroke-width:1" />
     <line x1="287" y1="228" x2="244" y2="197" style="stroke:rgb(0,0,0);stroke-width:1" />
     <line x1="826" y1="224" x2="846" y2="191" style="stroke:rgb(0,0,0);stroke-width:1" />
     <line x1="287" y1="228" x2="826" y2="224" style="stroke:rgb(0,0,0);stroke-width:1" />
     <line x1="244" y1="197" x2="846" y2="191" style="stroke:rgb(0,0,0);stroke-width:1" />
     <line x1="171" y1="207" x2="109" y2="170" style="stroke:rgb(0,0,0);stroke-width:1" />
     <line x1="750" y1="202" x2="763" y2="164" style="stroke:rgb(0,0,0);stroke-width:1" />
     <line x1="171" y1="207" x2="750" y2="202" style="stroke:rgb(0,0,0);stroke-width:1" />
     <line x1="109" y1="170" x2="763" y2="164" style="stroke:rgb(0,0,0);stroke-width:1" />
</svg>
