<?xml version="1.0" encoding="utf-8"?>
<svg xmlns="http://www.w3.org/2000/svg"
     xmlns:xlink="http://www.w3.org/1999/xlink"
     width="300" height="300">
     <line x1="82" y1="238" x2="53" y2="259" style="stroke:rgb(0,0,0);stroke-width:1" />
     <line x1="51" y1="240" x2="13" y2="262" style="stroke:rgb(0,0,0);stroke-width:1" />
     <line x1="82" y1="238" x2="51" y2="240" style="stroke:rgb(0,0,0);stroke-width:1" />
     <line x1="53" y1="259" x2="13" y2="262" style="stroke:rgb(0,0,0);stroke-width:1" />
     <line x1="82" y1="61" x2="53" y2="40" style="stroke:rgb(0,0,0);stroke-width:1" />
     <line x1="51" y1="59" x2="13" y2="37" style="stroke:rgb(0,0,0);stroke-width:1" />
     <line x1="82" y1="61" x2="51" y2="59" style="stroke:rgb(0,0,0);stroke-width:1" />
     <line x1="53" y1="40" x2="13" y2="37" style="stroke:rgb(0,0,0);stroke-width:1" />
     <line x1="82" y1="238" x2="53" y2="259" style="stroke:rgb(0,0,0);stroke-width:1" />
     <line x1="82" y1="61" x2="53" y2="40" style="stroke:rgb(0,0,0);stroke-width:1" />
     <line x1="82" y1="238" x2="82" y2="61" style="stroke:rgb(0,0,0);stroke-width:1" />
     <line x1="53" y1="259" x2="53" y2="40" style="stroke:rgb(0,0,0);stroke-width:1" />
     <line x1="51" y1="240" x2="13" y2="262" style="stroke:rgb(0,0,0);stroke-width:1" />
     <line x1="51" y1="59" x2="13" y2="37" style="stroke:rgb(0,0,0);stroke-width:1" />
     <line x1="51" y1="240" x2="51" y2="59" style="stroke:rgb(0,0,0);stroke-width:1" />
     <line x1="13" y1="262" x2="13" y2="37" style="stroke:rgb(0,0,0);stroke-width:1" />
     <line x1="258" y1="239" x2="271" y2="262" style="stroke:rgb(0,0,0);stroke-width:1" />
     <line x1="230" y1="241" x2="237" y2="265" style="stroke:rgb(0,0,0);stroke-width:1" />
     <line x1="258" y1="239" x2="230" y2="241" style="stroke:rgb(0,0,0);stroke-width:1" />
     <line x1="271" y1="262" x2="237" y2="265" style="stroke:rgb(0,0,0);stroke-width:1" />
     <line x1="258" y1="60" x2="271" y2="37" style="stroke:rgb(0,0,0);stroke-width:1" />
     <line x1="230" y1="58" x2="237" y2="34" style="stroke:rgb(0,0,0);stroke-width:1" />
     <line x1="258" y1="60" x2="230" y2="58" style="stroke:rgb(0,0,0);stroke-width:1" />
     <line x1="271" y1="37" x2="237" y2="34" style="stroke:rgb(0,0,0);stroke-width:1" />
     <line x1="258" y1="239" x2="271" y2="262" style="stroke:rgb(0,0,0);stroke-width:1" />
     <line x1="258" y1="60" x2="271" y2="37" style="stroke:rgb(0,0,0);stroke-width:1" />
     <line x1="258" y1="239" x2="258" y2="60" style="stroke:rgb(0,0,0);stroke-width:1" />
     <line x1="271" y1="262" x2="271" y2="37" style="stroke:rgb(0,0,0);stroke-width:1" />
     <line x1="230" y1="241" x2="237" y2="265" style="stroke:rgb(0,0,0);stroke-width:1" />
     <line x1="230" y1="58" x2="237" y2="34" style="stroke:rgb(0,0,0);stroke-width:1" />
     <line x1="230" y1="241" x2="230" y2="58" style="stroke:rgb(0,0,0);stroke-width:1" />
     <line x1="237" y1="265" x2="237" y2="34" style="stroke:rgb(0,0,0);stroke-width:1" />
     <line x1="82" y1="238" x2="53" y2="259" style="stroke:rgb(0,0,0);stroke-width:1" />
     <line x1="51" y1="240" x2="13" y2="262" style="stroke:rgb(0,0,0);stroke-width:1" />
     <line x1="82" y1="238" x2="51" y2="240" style="stroke:rgb(0,0,0);stroke-width:1" />
     <line x1="53" y1="259" x2="13" y2="262" style="stroke:rgb(0,0,0);stroke-width:1" />
     <line x1="258" y1="239" x2="271" y2="262" style="stroke:rgb(0,0,0);stroke-width:1" />
     <line x1="230" y1="241" x2="237" y2="265" style="stroke:rgb(0,0,0);stroke-width:1" />
     <line x1="258" y1="239" x2="230" y2="241" style="stroke:rgb(0,0,0);stroke-width:1" />
     <line x1="271" y1="262" x2="237" y2="265" style="stroke:rgb(0,0,0);stroke-width:1" />
     <line x1="82" y1="238" x2="53" y2="259" style="stroke:rgb(0,0,0);stroke-width:1" />
     <line x1="258" y1="239" x2="271" y2="262" style="stroke:rgb(0,0,0);stroke-width:1" />
     <line x1="82" y1="238" x2="258" y2="239" style="stroke:rgb(0,0,0);stroke-width:1" />
     <line x1="53" y1="259" x2="271" y2="262" style="stroke:rgb(0,0,0);stroke-width:1" />
     <line x1="51" y1="240" x2="13" y2="262" style="stroke:rgb(0,0,0);stroke-width:1" />
     <line x1="230" y1="241" x2="237" y2="265" style="stroke:rgb(0,0,0);stroke-width:1" />
     <line x1="51" y1="240" x2="230" y2="241" style="stroke:rgb(0,0,0);stroke-width:1" />
     <line x1="13" y1="262" x2="237" y2="265" style="stroke:rgb(0,0,0);stroke-width:1" />
     <line x1="82" y1="61" x2="53" y2="40" style="stroke:rgb(0,0,0);stroke-width:1" />
     <line x1="51" y1="59" x2="13" y2="37" style="stroke:rgb(0,0,0);stroke-width:1" />
     <line x1="82" y1="61" x2="51" y2="59" style="stroke:rgb(0,0,0);stroke-width:1" />
     <line x1="53" y1="40" x2="13" y2="37" style="stroke:rgb(0,0,0);stroke-width:1" />
     <line x1="258" y1="60" x2="271" y2="37" style="stroke:rgb(0,0,0);stroke-width:1" />
     <line x1="230" y1="58" x2="237" y2="34" style="stroke:rgb(0,0,0);stroke-width:1" />
     <line x1="258" y1="60" x2="230" y2="58" style="stroke:rgb(0,0,0);stroke-width:1" />
     <line x1="271" y1="37" x2="237" y2="34" style="stroke:rgb(0,0,0);stroke-width:1" />
     <line x1="82" y1="61" x2="53" y2="40" style="stroke:rgb(0,0,0);stroke-width:1" />
     <line x1="258" y1="60" x2="271" y2="37" style="stroke:rgb(0,0,0);stroke-width:1" />
     <line x1="82" y1="61" x2="258" y2="60" style="stroke:rgb(0,0,0);stroke-width:1" />
     <line x1="53" y1="40" x2="271" y2="37" style="stroke:rgb(0,0,0);stroke-width:1" />
     <line x1="51" y1="59" x2="13" y2="37" style="stroke:rgb(0,0,0);stroke-width:1" />
     <line x1="230" y1="58" x2="237" y2="34" style="stroke:rgb(0,0,0);stroke-width:1" />
     <line x1="51" y1="59" x2="230" y2="58" style="stroke:rgb(0,0,0);stroke-width:1" />
     <line x1="13" y1="37" x2="237" y2="34" style="stroke:rgb(0,0,0);stroke-width:1" />
</svg>
