<?xml version="1.0" encoding="utf-8"?>
<svg xmlns="http://www.w3.org/2000/svg"
     xmlns:xlink="http://www.w3.org/1999/xlink"
     width="1000" height="1000">
     <line x1="292" y1="772" x2="228" y2="807" style="stroke:rgb(0,0,0);stroke-width:1" />
     <line x1="186" y1="787" x2="104" y2="827" style="stroke:rgb(0,0,0);stroke-width:1" />
     <line x1="292" y1="772" x2="186" y2="787" style="stroke:rgb(0,0,0);stroke-width:1" />
     <line x1="228" y1="807" x2="104" y2="827" style="stroke:rgb(0,0,0);stroke-width:1" />
     <line x1="292" y1="227" x2="228" y2="192" style="stroke:rgb(0,0,0);stroke-width:1" />
     <line x1="186" y1="212" x2="104" y2="172" style="stroke:rgb(0,0,0);stroke-width:1" />
     <line x1="292" y1="227" x2="186" y2="212" style="stroke:rgb(0,0,0);stroke-width:1" />
     <line x1="228" y1="192" x2="104" y2="172" style="stroke:rgb(0,0,0);stroke-width:1" />
     <line x1="292" y1="772" x2="228" y2="807" style="stroke:rgb(0,0,0);stroke-width:1" />
     <line x1="292" y1="227" x2="228" y2="192" style="stroke:rgb(0,0,0);stroke-width:1" />
     <line x1="292" y1="772" x2="292" y2="227" style="stroke:rgb(0,0,0);stroke-width:1" />
     <line x1="228" y1="807" x2="228" y2="192" style="stroke:rgb(0,0,0);stroke-width:1" />
     <line x1="186" y1="787" x2="104" y2="827" style="stroke:rgb(0,0,0);stroke-width:1" />
     <line x1="186" y1="212" x2="104" y2="172" style="stroke:rgb(0,0,0);stroke-width:1" />
     <line x1="186" y1="787" x2="186" y2="212" style="stroke:rgb(0,0,0);stroke-width:1" />
     <line x1="104" y1="827" x2="104" y2="172" style="stroke:rgb(0,0,0);stroke-width:1" />
     <line x1="834" y1="776" x2="841" y2="813" style="stroke:rgb(0,0,0);stroke-width:1" />
     <line x1="757" y1="792" x2="754" y2="833" style="stroke:rgb(0,0,0);stroke-width:1" />
     <line x1="834" y1="776" x2="757" y2="792" style="stroke:rgb(0,0,0);stroke-width:1" />
     <line x1="841" y1="813" x2="754" y2="833" style="stroke:rgb(0,0,0);stroke-width:1" />
     <line x1="834" y1="223" x2="841" y2="186" style="stroke:rgb(0,0,0);stroke-width:1" />
     <line x1="757" y1="207" x2="754" y2="166" style="stroke:rgb(0,0,0);stroke-width:1" />
     <line x1="834" y1="223" x2="757" y2="207" style="stroke:rgb(0,0,0);stroke-width:1" />
     <line x1="841" y1="186" x2="754" y2="166" style="stroke:rgb(0,0,0);stroke-width:1" />
     <line x1="834" y1="776" x2="841" y2="813" style="stroke:rgb(0,0,0);stroke-width:1" />
     <line x1="834" y1="223" x2="841" y2="186" style="stroke:rgb(0,0,0);stroke-width:1" />
     <line x1="834" y1="776" x2="834" y2="223" style="stroke:rgb(0,0,0);stroke-width:1" />
     <line x1="841" y1="813" x2="841" y2="186" style="stroke:rgb(0,0,0);stroke-width:1" />
     <line x1="757" y1="792" x2="754" y2="833" style="stroke:rgb(0,0,0);stroke-width:1" />
     <line x1="757" y1="207" x2="754" y2="166" style="stroke:rgb(0,0,0);stroke-width:1" />
     <line x1="757" y1="792" x2="757" y2="207" style="stroke:rgb(0,0,0);stroke-width:1" />
     <line x1="754" y1="833" x2="754" y2="166" style="stroke:rgb(0,0,0);stroke-width:1" />
     <line x1="292" y1="772" x2="228" y2="807" style="stroke:rgb(0,0,0);stroke-width:1" />
     <line x1="186" y1="787" x2="104" y2="827" style="stroke:rgb(0,0,0);stroke-width:1" />
     <line x1="292" y1="772" x2="186" y2="787" style="stroke:rgb(0,0,0);stroke-width:1" />
     <line x1="228" y1="807" x2="104" y2="827" style="stroke:rgb(0,0,0);stroke-width:1" />
     <line x1="834" y1="776" x2="841" y2="813" style="stroke:rgb(0,0,0);stroke-width:1" />
     <line x1="757" y1="792" x2="754" y2="833" style="stroke:rgb(0,0,0);stroke-width:1" />
     <line x1="834" y1="776" x2="757" y2="792" style="stroke:rgb(0,0,0);stroke-width:1" />
     <line x1="841" y1="813" x2="754" y2="833" style="stroke:rgb(0,0,0);stroke-width:1" />
     <line x1="292" y1="772" x2="228" y2="807" style="stroke:rgb(0,0,0);stroke-width:1" />
     <line x1="834" y1="776" x2="841" y2="813" style="stroke:rgb(0,0,0);stroke-width:1" />
     <line x1="292" y1="772" x2="834" y2="776" style="stroke:rgb(0,0,0);stroke-width:1" />
     <line x1="228" y1="807" x2="841" y2="813" style="stroke:rgb(0,0,0);stroke-width:1" />
     <line x1="186" y1="787" x2="104" y2="827" style="stroke:rgb(0,0,0);stroke-width:1" />
     <line x1="757" y1="792" x2="754" y2="833" style="stroke:rgb(0,0,0);stroke-width:1" />
     <line x1="186" y1="787" x2="757" y2="792" style="stroke:rgb(0,0,0);stroke-width:1" />
     <line x1="104" y1="827" x2="754" y2="833" style="stroke:rgb(0,0,0);stroke-width:1" />
     <line x1="292" y1="227" x2="228" y2="192" style="stroke:rgb(0,0,0);stroke-width:1" />
     <line x1="186" y1="212" x2="104" y2="172" style="stroke:rgb(0,0,0);stroke-width:1" />
     <line x1="292" y1="227" x2="186" y2="212" style="stroke:rgb(0,0,0);stroke-width:1" />
     <line x1="228" y1="192" x2="104" y2="172" style="stroke:rgb(0,0,0);stroke-width:1" />
     <line x1="834" y1="223" x2="841" y2="186" style="stroke:rgb(0,0,0);stroke-width:1" />
     <line x1="757" y1="207" x2="754" y2="166" style="stroke:rgb(0,0,0);stroke-width:1" />
     <line x1="834" y1="223" x2="757" y2="207" style="stroke:rgb(0,0,0);stroke-width:1" />
     <line x1="841" y1="186" x2="754" y2="166" style="stroke:rgb(0,0,0);stroke-width:1" />
     <line x1="292" y1="227" x2="228" y2="192" style="stroke:rgb(0,0,0);stroke-width:1" />
     <line x1="834" y1="223" x2="841" y2="186" style="stroke:rgb(0,0,0);stroke-width:1" />
     <line x1="292" y1="227" x2="834" y2="223" style="stroke:rgb(0,0,0);stroke-width:1" />
     <line x1="228" y1="192" x2="841" y2="186" style="stroke:rgb(0,0,0);stroke-width:1" />
     <line x1="186" y1="212" x2="104" y2="172" style="stroke:rgb(0,0,0);stroke-width:1" />
     <line x1="757" y1="207" x2="754" y2="166" style="stroke:rgb(0,0,0);stroke-width:1" />
     <line x1="186" y1="212" x2="757" y2="207" style="stroke:rgb(0,0,0);stroke-width:1" />
     <line x1="104" y1="172" x2="754" y2="166" style="stroke:rgb(0,0,0);stroke-width:1" />
</svg>
