<?xml version="1.0" encoding="utf-8"?>
<svg xmlns="http://www.w3.org/2000/svg"
     xmlns:xlink="http://www.w3.org/1999/xlink"
     width="300" height="300">
     <line x1="82" y1="239" x2="46" y2="262" style="stroke:rgb(0,0,0);stroke-width:1" />
     <line x1="56" y1="238" x2="14" y2="260" style="stroke:rgb(0,0,0);stroke-width:1" />
     <line x1="82" y1="239" x2="56" y2="238" style="stroke:rgb(0,0,0);stroke-width:1" />
     <line x1="46" y1="262" x2="14" y2="260" style="stroke:rgb(0,0,0);stroke-width:1" />
     <line x1="82" y1="60" x2="46" y2="37" style="stroke:rgb(0,0,0);stroke-width:1" />
     <line x1="56" y1="61" x2="14" y2="39" style="stroke:rgb(0,0,0);stroke-width:1" />
     <line x1="82" y1="60" x2="56" y2="61" style="stroke:rgb(0,0,0);stroke-width:1" />
     <line x1="46" y1="37" x2="14" y2="39" style="stroke:rgb(0,0,0);stroke-width:1" />
     <line x1="82" y1="239" x2="46" y2="262" style="stroke:rgb(0,0,0);stroke-width:1" />
     <line x1="82" y1="60" x2="46" y2="37" style="stroke:rgb(0,0,0);stroke-width:1" />
     <line x1="82" y1="239" x2="82" y2="60" style="stroke:rgb(0,0,0);stroke-width:1" />
     <line x1="46" y1="262" x2="46" y2="37" style="stroke:rgb(0,0,0);stroke-width:1" />
     <line x1="56" y1="238" x2="14" y2="260" style="stroke:rgb(0,0,0);stroke-width:1" />
     <line x1="56" y1="61" x2="14" y2="39" style="stroke:rgb(0,0,0);stroke-width:1" />
     <line x1="56" y1="238" x2="56" y2="61" style="stroke:rgb(0,0,0);stroke-width:1" />
     <line x1="14" y1="260" x2="14" y2="39" style="stroke:rgb(0,0,0);stroke-width:1" />
     <line x1="261" y1="241" x2="270" y2="264" style="stroke:rgb(0,0,0);stroke-width:1" />
     <line x1="233" y1="240" x2="234" y2="262" style="stroke:rgb(0,0,0);stroke-width:1" />
     <line x1="261" y1="241" x2="233" y2="240" style="stroke:rgb(0,0,0);stroke-width:1" />
     <line x1="270" y1="264" x2="234" y2="262" style="stroke:rgb(0,0,0);stroke-width:1" />
     <line x1="261" y1="58" x2="270" y2="35" style="stroke:rgb(0,0,0);stroke-width:1" />
     <line x1="233" y1="59" x2="234" y2="37" style="stroke:rgb(0,0,0);stroke-width:1" />
     <line x1="261" y1="58" x2="233" y2="59" style="stroke:rgb(0,0,0);stroke-width:1" />
     <line x1="270" y1="35" x2="234" y2="37" style="stroke:rgb(0,0,0);stroke-width:1" />
     <line x1="261" y1="241" x2="270" y2="264" style="stroke:rgb(0,0,0);stroke-width:1" />
     <line x1="261" y1="58" x2="270" y2="35" style="stroke:rgb(0,0,0);stroke-width:1" />
     <line x1="261" y1="241" x2="261" y2="58" style="stroke:rgb(0,0,0);stroke-width:1" />
     <line x1="270" y1="264" x2="270" y2="35" style="stroke:rgb(0,0,0);stroke-width:1" />
     <line x1="233" y1="240" x2="234" y2="262" style="stroke:rgb(0,0,0);stroke-width:1" />
     <line x1="233" y1="59" x2="234" y2="37" style="stroke:rgb(0,0,0);stroke-width:1" />
     <line x1="233" y1="240" x2="233" y2="59" style="stroke:rgb(0,0,0);stroke-width:1" />
     <line x1="234" y1="262" x2="234" y2="37" style="stroke:rgb(0,0,0);stroke-width:1" />
     <line x1="82" y1="239" x2="46" y2="262" style="stroke:rgb(0,0,0);stroke-width:1" />
     <line x1="56" y1="238" x2="14" y2="260" style="stroke:rgb(0,0,0);stroke-width:1" />
     <line x1="82" y1="239" x2="56" y2="238" style="stroke:rgb(0,0,0);stroke-width:1" />
     <line x1="46" y1="262" x2="14" y2="260" style="stroke:rgb(0,0,0);stroke-width:1" />
     <line x1="261" y1="241" x2="270" y2="264" style="stroke:rgb(0,0,0);stroke-width:1" />
     <line x1="233" y1="240" x2="234" y2="262" style="stroke:rgb(0,0,0);stroke-width:1" />
     <line x1="261" y1="241" x2="233" y2="240" style="stroke:rgb(0,0,0);stroke-width:1" />
     <line x1="270" y1="264" x2="234" y2="262" style="stroke:rgb(0,0,0);stroke-width:1" />
     <line x1="82" y1="239" x2="46" y2="262" style="stroke:rgb(0,0,0);stroke-width:1" />
     <line x1="261" y1="241" x2="270" y2="264" style="stroke:rgb(0,0,0);stroke-width:1" />
     <line x1="82" y1="239" x2="261" y2="241" style="stroke:rgb(0,0,0);stroke-width:1" />
     <line x1="46" y1="262" x2="270" y2="264" style="stroke:rgb(0,0,0);stroke-width:1" />
     <line x1="56" y1="238" x2="14" y2="260" style="stroke:rgb(0,0,0);stroke-width:1" />
     <line x1="233" y1="240" x2="234" y2="262" style="stroke:rgb(0,0,0);stroke-width:1" />
     <line x1="56" y1="238" x2="233" y2="240" style="stroke:rgb(0,0,0);stroke-width:1" />
     <line x1="14" y1="260" x2="234" y2="262" style="stroke:rgb(0,0,0);stroke-width:1" />
     <line x1="82" y1="60" x2="46" y2="37" style="stroke:rgb(0,0,0);stroke-width:1" />
     <line x1="56" y1="61" x2="14" y2="39" style="stroke:rgb(0,0,0);stroke-width:1" />
     <line x1="82" y1="60" x2="56" y2="61" style="stroke:rgb(0,0,0);stroke-width:1" />
     <line x1="46" y1="37" x2="14" y2="39" style="stroke:rgb(0,0,0);stroke-width:1" />
     <line x1="261" y1="58" x2="270" y2="35" style="stroke:rgb(0,0,0);stroke-width:1" />
     <line x1="233" y1="59" x2="234" y2="37" style="stroke:rgb(0,0,0);stroke-width:1" />
     <line x1="261" y1="58" x2="233" y2="59" style="stroke:rgb(0,0,0);stroke-width:1" />
     <line x1="270" y1="35" x2="234" y2="37" style="stroke:rgb(0,0,0);stroke-width:1" />
     <line x1="82" y1="60" x2="46" y2="37" style="stroke:rgb(0,0,0);stroke-width:1" />
     <line x1="261" y1="58" x2="270" y2="35" style="stroke:rgb(0,0,0);stroke-width:1" />
     <line x1="82" y1="60" x2="261" y2="58" style="stroke:rgb(0,0,0);stroke-width:1" />
     <line x1="46" y1="37" x2="270" y2="35" style="stroke:rgb(0,0,0);stroke-width:1" />
     <line x1="56" y1="61" x2="14" y2="39" style="stroke:rgb(0,0,0);stroke-width:1" />
     <line x1="233" y1="59" x2="234" y2="37" style="stroke:rgb(0,0,0);stroke-width:1" />
     <line x1="56" y1="61" x2="233" y2="59" style="stroke:rgb(0,0,0);stroke-width:1" />
     <line x1="14" y1="39" x2="234" y2="37" style="stroke:rgb(0,0,0);stroke-width:1" />
</svg>
