<?xml version="1.0" encoding="utf-8"?>
<svg xmlns="http://www.w3.org/2000/svg"
     xmlns:xlink="http://www.w3.org/1999/xlink"
     width="1000" height="1000">
     <line x1="259" y1="774" x2="171" y2="840" style="stroke:rgb(0,0,0);stroke-width:1" />
     <line x1="225" y1="766" x2="133" y2="828" style="stroke:rgb(0,0,0);stroke-width:1" />
     <line x1="259" y1="774" x2="225" y2="766" style="stroke:rgb(0,0,0);stroke-width:1" />
     <line x1="171" y1="840" x2="133" y2="828" style="stroke:rgb(0,0,0);stroke-width:1" />
     <line x1="259" y1="225" x2="171" y2="159" style="stroke:rgb(0,0,0);stroke-width:1" />
     <line x1="225" y1="233" x2="133" y2="171" style="stroke:rgb(0,0,0);stroke-width:1" />
     <line x1="259" y1="225" x2="225" y2="233" style="stroke:rgb(0,0,0);stroke-width:1" />
     <line x1="171" y1="159" x2="133" y2="171" style="stroke:rgb(0,0,0);stroke-width:1" />
     <line x1="259" y1="774" x2="171" y2="840" style="stroke:rgb(0,0,0);stroke-width:1" />
     <line x1="259" y1="225" x2="171" y2="159" style="stroke:rgb(0,0,0);stroke-width:1" />
     <line x1="259" y1="774" x2="259" y2="225" style="stroke:rgb(0,0,0);stroke-width:1" />
     <line x1="171" y1="840" x2="171" y2="159" style="stroke:rgb(0,0,0);stroke-width:1" />
     <line x1="225" y1="766" x2="133" y2="828" style="stroke:rgb(0,0,0);stroke-width:1" />
     <line x1="225" y1="233" x2="133" y2="171" style="stroke:rgb(0,0,0);stroke-width:1" />
     <line x1="225" y1="766" x2="225" y2="233" style="stroke:rgb(0,0,0);stroke-width:1" />
     <line x1="133" y1="828" x2="133" y2="171" style="stroke:rgb(0,0,0);stroke-width:1" />
     <line x1="807" y1="775" x2="852" y2="843" style="stroke:rgb(0,0,0);stroke-width:1" />
     <line x1="758" y1="768" x2="790" y2="831" style="stroke:rgb(0,0,0);stroke-width:1" />
     <line x1="807" y1="775" x2="758" y2="768" style="stroke:rgb(0,0,0);stroke-width:1" />
     <line x1="852" y1="843" x2="790" y2="831" style="stroke:rgb(0,0,0);stroke-width:1" />
     <line x1="807" y1="224" x2="852" y2="156" style="stroke:rgb(0,0,0);stroke-width:1" />
     <line x1="758" y1="231" x2="790" y2="168" style="stroke:rgb(0,0,0);stroke-width:1" />
     <line x1="807" y1="224" x2="758" y2="231" style="stroke:rgb(0,0,0);stroke-width:1" />
     <line x1="852" y1="156" x2="790" y2="168" style="stroke:rgb(0,0,0);stroke-width:1" />
     <line x1="807" y1="775" x2="852" y2="843" style="stroke:rgb(0,0,0);stroke-width:1" />
     <line x1="807" y1="224" x2="852" y2="156" style="stroke:rgb(0,0,0);stroke-width:1" />
     <line x1="807" y1="775" x2="807" y2="224" style="stroke:rgb(0,0,0);stroke-width:1" />
     <line x1="852" y1="843" x2="852" y2="156" style="stroke:rgb(0,0,0);stroke-width:1" />
     <line x1="758" y1="768" x2="790" y2="831" style="stroke:rgb(0,0,0);stroke-width:1" />
     <line x1="758" y1="231" x2="790" y2="168" style="stroke:rgb(0,0,0);stroke-width:1" />
     <line x1="758" y1="768" x2="758" y2="231" style="stroke:rgb(0,0,0);stroke-width:1" />
     <line x1="790" y1="831" x2="790" y2="168" style="stroke:rgb(0,0,0);stroke-width:1" />
     <line x1="259" y1="774" x2="171" y2="840" style="stroke:rgb(0,0,0);stroke-width:1" />
     <line x1="225" y1="766" x2="133" y2="828" style="stroke:rgb(0,0,0);stroke-width:1" />
     <line x1="259" y1="774" x2="225" y2="766" style="stroke:rgb(0,0,0);stroke-width:1" />
     <line x1="171" y1="840" x2="133" y2="828" style="stroke:rgb(0,0,0);stroke-width:1" />
     <line x1="807" y1="775" x2="852" y2="843" style="stroke:rgb(0,0,0);stroke-width:1" />
     <line x1="758" y1="768" x2="790" y2="831" style="stroke:rgb(0,0,0);stroke-width:1" />
     <line x1="807" y1="775" x2="758" y2="768" style="stroke:rgb(0,0,0);stroke-width:1" />
     <line x1="852" y1="843" x2="790" y2="831" style="stroke:rgb(0,0,0);stroke-width:1" />
     <line x1="259" y1="774" x2="171" y2="840" style="stroke:rgb(0,0,0);stroke-width:1" />
     <line x1="807" y1="775" x2="852" y2="843" style="stroke:rgb(0,0,0);stroke-width:1" />
     <line x1="259" y1="774" x2="807" y2="775" style="stroke:rgb(0,0,0);stroke-width:1" />
     <line x1="171" y1="840" x2="852" y2="843" style="stroke:rgb(0,0,0);stroke-width:1" />
     <line x1="225" y1="766" x2="133" y2="828" style="stroke:rgb(0,0,0);stroke-width:1" />
     <line x1="758" y1="768" x2="790" y2="831" style="stroke:rgb(0,0,0);stroke-width:1" />
     <line x1="225" y1="766" x2="758" y2="768" style="stroke:rgb(0,0,0);stroke-width:1" />
     <line x1="133" y1="828" x2="790" y2="831" style="stroke:rgb(0,0,0);stroke-width:1" />
     <line x1="259" y1="225" x2="171" y2="159" style="stroke:rgb(0,0,0);stroke-width:1" />
     <line x1="225" y1="233" x2="133" y2="171" style="stroke:rgb(0,0,0);stroke-width:1" />
     <line x1="259" y1="225" x2="225" y2="233" style="stroke:rgb(0,0,0);stroke-width:1" />
     <line x1="171" y1="159" x2="133" y2="171" style="stroke:rgb(0,0,0);stroke-width:1" />
     <line x1="807" y1="224" x2="852" y2="156" style="stroke:rgb(0,0,0);stroke-width:1" />
     <line x1="758" y1="231" x2="790" y2="168" style="stroke:rgb(0,0,0);stroke-width:1" />
     <line x1="807" y1="224" x2="758" y2="231" style="stroke:rgb(0,0,0);stroke-width:1" />
     <line x1="852" y1="156" x2="790" y2="168" style="stroke:rgb(0,0,0);stroke-width:1" />
     <line x1="259" y1="225" x2="171" y2="159" style="stroke:rgb(0,0,0);stroke-width:1" />
     <line x1="807" y1="224" x2="852" y2="156" style="stroke:rgb(0,0,0);stroke-width:1" />
     <line x1="259" y1="225" x2="807" y2="224" style="stroke:rgb(0,0,0);stroke-width:1" />
     <line x1="171" y1="159" x2="852" y2="156" style="stroke:rgb(0,0,0);stroke-width:1" />
     <line x1="225" y1="233" x2="133" y2="171" style="stroke:rgb(0,0,0);stroke-width:1" />
     <line x1="758" y1="231" x2="790" y2="168" style="stroke:rgb(0,0,0);stroke-width:1" />
     <line x1="225" y1="233" x2="758" y2="231" style="stroke:rgb(0,0,0);stroke-width:1" />
     <line x1="133" y1="171" x2="790" y2="168" style="stroke:rgb(0,0,0);stroke-width:1" />
</svg>
