<?xml version="1.0" encoding="utf-8"?>
<svg xmlns="http://www.w3.org/2000/svg"
     xmlns:xlink="http://www.w3.org/1999/xlink"
     width="1000" height="1000">
     <line x1="189" y1="767" x2="148" y2="803"         style="stroke:rgb(0,0,0);stroke-width:1" />
     <line x1="254" y1="803" x2="215" y2="850"         style="stroke:rgb(0,0,0);stroke-width:1" />
     <line x1="189" y1="767" x2="254" y2="803"         style="stroke:rgb(0,0,0);stroke-width:1" />
     <line x1="148" y1="803" x2="215" y2="850"         style="stroke:rgb(0,0,0);stroke-width:1" />
     <line x1="189" y1="232" x2="148" y2="196"         style="stroke:rgb(0,0,0);stroke-width:1" />
     <line x1="254" y1="196" x2="215" y2="149"         style="stroke:rgb(0,0,0);stroke-width:1" />
     <line x1="189" y1="232" x2="254" y2="196"         style="stroke:rgb(0,0,0);stroke-width:1" />
     <line x1="148" y1="196" x2="215" y2="149"         style="stroke:rgb(0,0,0);stroke-width:1" />
     <line x1="189" y1="767" x2="148" y2="803"         style="stroke:rgb(0,0,0);stroke-width:1" />
     <line x1="189" y1="232" x2="148" y2="196"         style="stroke:rgb(0,0,0);stroke-width:1" />
     <line x1="189" y1="767" x2="189" y2="232"         style="stroke:rgb(0,0,0);stroke-width:1" />
     <line x1="148" y1="803" x2="148" y2="196"         style="stroke:rgb(0,0,0);stroke-width:1" />
     <line x1="254" y1="803" x2="215" y2="850"         style="stroke:rgb(0,0,0);stroke-width:1" />
     <line x1="254" y1="196" x2="215" y2="149"         style="stroke:rgb(0,0,0);stroke-width:1" />
     <line x1="254" y1="803" x2="254" y2="196"         style="stroke:rgb(0,0,0);stroke-width:1" />
     <line x1="215" y1="850" x2="215" y2="149"         style="stroke:rgb(0,0,0);stroke-width:1" />
     <line x1="712" y1="762" x2="740" y2="796"         style="stroke:rgb(0,0,0);stroke-width:1" />
     <line x1="843" y1="796" x2="895" y2="841"         style="stroke:rgb(0,0,0);stroke-width:1" />
     <line x1="712" y1="762" x2="843" y2="796"         style="stroke:rgb(0,0,0);stroke-width:1" />
     <line x1="740" y1="796" x2="895" y2="841"         style="stroke:rgb(0,0,0);stroke-width:1" />
     <line x1="712" y1="237" x2="740" y2="203"         style="stroke:rgb(0,0,0);stroke-width:1" />
     <line x1="843" y1="203" x2="895" y2="158"         style="stroke:rgb(0,0,0);stroke-width:1" />
     <line x1="712" y1="237" x2="843" y2="203"         style="stroke:rgb(0,0,0);stroke-width:1" />
     <line x1="740" y1="203" x2="895" y2="158"         style="stroke:rgb(0,0,0);stroke-width:1" />
     <line x1="712" y1="762" x2="740" y2="796"         style="stroke:rgb(0,0,0);stroke-width:1" />
     <line x1="712" y1="237" x2="740" y2="203"         style="stroke:rgb(0,0,0);stroke-width:1" />
     <line x1="712" y1="762" x2="712" y2="237"         style="stroke:rgb(0,0,0);stroke-width:1" />
     <line x1="740" y1="796" x2="740" y2="203"         style="stroke:rgb(0,0,0);stroke-width:1" />
     <line x1="843" y1="796" x2="895" y2="841"         style="stroke:rgb(0,0,0);stroke-width:1" />
     <line x1="843" y1="203" x2="895" y2="158"         style="stroke:rgb(0,0,0);stroke-width:1" />
     <line x1="843" y1="796" x2="843" y2="203"         style="stroke:rgb(0,0,0);stroke-width:1" />
     <line x1="895" y1="841" x2="895" y2="158"         style="stroke:rgb(0,0,0);stroke-width:1" />
     <line x1="189" y1="767" x2="148" y2="803"         style="stroke:rgb(0,0,0);stroke-width:1" />
     <line x1="254" y1="803" x2="215" y2="850"         style="stroke:rgb(0,0,0);stroke-width:1" />
     <line x1="189" y1="767" x2="254" y2="803"         style="stroke:rgb(0,0,0);stroke-width:1" />
     <line x1="148" y1="803" x2="215" y2="850"         style="stroke:rgb(0,0,0);stroke-width:1" />
     <line x1="712" y1="762" x2="740" y2="796"         style="stroke:rgb(0,0,0);stroke-width:1" />
     <line x1="843" y1="796" x2="895" y2="841"         style="stroke:rgb(0,0,0);stroke-width:1" />
     <line x1="712" y1="762" x2="843" y2="796"         style="stroke:rgb(0,0,0);stroke-width:1" />
     <line x1="740" y1="796" x2="895" y2="841"         style="stroke:rgb(0,0,0);stroke-width:1" />
     <line x1="189" y1="767" x2="148" y2="803"         style="stroke:rgb(0,0,0);stroke-width:1" />
     <line x1="712" y1="762" x2="740" y2="796"         style="stroke:rgb(0,0,0);stroke-width:1" />
     <line x1="189" y1="767" x2="712" y2="762"         style="stroke:rgb(0,0,0);stroke-width:1" />
     <line x1="148" y1="803" x2="740" y2="796"         style="stroke:rgb(0,0,0);stroke-width:1" />
     <line x1="254" y1="803" x2="215" y2="850"         style="stroke:rgb(0,0,0);stroke-width:1" />
     <line x1="843" y1="796" x2="895" y2="841"         style="stroke:rgb(0,0,0);stroke-width:1" />
     <line x1="254" y1="803" x2="843" y2="796"         style="stroke:rgb(0,0,0);stroke-width:1" />
     <line x1="215" y1="850" x2="895" y2="841"         style="stroke:rgb(0,0,0);stroke-width:1" />
     <line x1="189" y1="232" x2="148" y2="196"         style="stroke:rgb(0,0,0);stroke-width:1" />
     <line x1="254" y1="196" x2="215" y2="149"         style="stroke:rgb(0,0,0);stroke-width:1" />
     <line x1="189" y1="232" x2="254" y2="196"         style="stroke:rgb(0,0,0);stroke-width:1" />
     <line x1="148" y1="196" x2="215" y2="149"         style="stroke:rgb(0,0,0);stroke-width:1" />
     <line x1="712" y1="237" x2="740" y2="203"         style="stroke:rgb(0,0,0);stroke-width:1" />
     <line x1="843" y1="203" x2="895" y2="158"         style="stroke:rgb(0,0,0);stroke-width:1" />
     <line x1="712" y1="237" x2="843" y2="203"         style="stroke:rgb(0,0,0);stroke-width:1" />
     <line x1="740" y1="203" x2="895" y2="158"         style="stroke:rgb(0,0,0);stroke-width:1" />
     <line x1="189" y1="232" x2="148" y2="196"         style="stroke:rgb(0,0,0);stroke-width:1" />
     <line x1="712" y1="237" x2="740" y2="203"         style="stroke:rgb(0,0,0);stroke-width:1" />
     <line x1="189" y1="232" x2="712" y2="237"         style="stroke:rgb(0,0,0);stroke-width:1" />
     <line x1="148" y1="196" x2="740" y2="203"         style="stroke:rgb(0,0,0);stroke-width:1" />
     <line x1="254" y1="196" x2="215" y2="149"         style="stroke:rgb(0,0,0);stroke-width:1" />
     <line x1="843" y1="203" x2="895" y2="158"         style="stroke:rgb(0,0,0);stroke-width:1" />
     <line x1="254" y1="196" x2="843" y2="203"         style="stroke:rgb(0,0,0);stroke-width:1" />
     <line x1="215" y1="149" x2="895" y2="158"         style="stroke:rgb(0,0,0);stroke-width:1" />
</svg>
