<?xml version="1.0" encoding="utf-8"?>
<svg xmlns="http://www.w3.org/2000/svg"
     xmlns:xlink="http://www.w3.org/1999/xlink"
     width="1000" height="1000">
     <line x1="278" y1="762" x2="272" y2="790"         style="stroke:rgb(0,0,0);stroke-width:1" />
     <line x1="140" y1="803" x2="116" y2="840"         style="stroke:rgb(0,0,0);stroke-width:1" />
     <line x1="278" y1="762" x2="140" y2="803"         style="stroke:rgb(0,0,0);stroke-width:1" />
     <line x1="272" y1="790" x2="116" y2="840"         style="stroke:rgb(0,0,0);stroke-width:1" />
     <line x1="278" y1="237" x2="272" y2="209"         style="stroke:rgb(0,0,0);stroke-width:1" />
     <line x1="140" y1="196" x2="116" y2="159"         style="stroke:rgb(0,0,0);stroke-width:1" />
     <line x1="278" y1="237" x2="140" y2="196"         style="stroke:rgb(0,0,0);stroke-width:1" />
     <line x1="272" y1="209" x2="116" y2="159"         style="stroke:rgb(0,0,0);stroke-width:1" />
     <line x1="278" y1="762" x2="272" y2="790"         style="stroke:rgb(0,0,0);stroke-width:1" />
     <line x1="278" y1="237" x2="272" y2="209"         style="stroke:rgb(0,0,0);stroke-width:1" />
     <line x1="278" y1="762" x2="278" y2="237"         style="stroke:rgb(0,0,0);stroke-width:1" />
     <line x1="272" y1="790" x2="272" y2="209"         style="stroke:rgb(0,0,0);stroke-width:1" />
     <line x1="140" y1="803" x2="116" y2="840"         style="stroke:rgb(0,0,0);stroke-width:1" />
     <line x1="140" y1="196" x2="116" y2="159"         style="stroke:rgb(0,0,0);stroke-width:1" />
     <line x1="140" y1="803" x2="140" y2="196"         style="stroke:rgb(0,0,0);stroke-width:1" />
     <line x1="116" y1="840" x2="116" y2="159"         style="stroke:rgb(0,0,0);stroke-width:1" />
     <line x1="801" y1="768" x2="852" y2="796"         style="stroke:rgb(0,0,0);stroke-width:1" />
     <line x1="743" y1="810" x2="795" y2="849"         style="stroke:rgb(0,0,0);stroke-width:1" />
     <line x1="801" y1="768" x2="743" y2="810"         style="stroke:rgb(0,0,0);stroke-width:1" />
     <line x1="852" y1="796" x2="795" y2="849"         style="stroke:rgb(0,0,0);stroke-width:1" />
     <line x1="801" y1="231" x2="852" y2="203"         style="stroke:rgb(0,0,0);stroke-width:1" />
     <line x1="743" y1="189" x2="795" y2="150"         style="stroke:rgb(0,0,0);stroke-width:1" />
     <line x1="801" y1="231" x2="743" y2="189"         style="stroke:rgb(0,0,0);stroke-width:1" />
     <line x1="852" y1="203" x2="795" y2="150"         style="stroke:rgb(0,0,0);stroke-width:1" />
     <line x1="801" y1="768" x2="852" y2="796"         style="stroke:rgb(0,0,0);stroke-width:1" />
     <line x1="801" y1="231" x2="852" y2="203"         style="stroke:rgb(0,0,0);stroke-width:1" />
     <line x1="801" y1="768" x2="801" y2="231"         style="stroke:rgb(0,0,0);stroke-width:1" />
     <line x1="852" y1="796" x2="852" y2="203"         style="stroke:rgb(0,0,0);stroke-width:1" />
     <line x1="743" y1="810" x2="795" y2="849"         style="stroke:rgb(0,0,0);stroke-width:1" />
     <line x1="743" y1="189" x2="795" y2="150"         style="stroke:rgb(0,0,0);stroke-width:1" />
     <line x1="743" y1="810" x2="743" y2="189"         style="stroke:rgb(0,0,0);stroke-width:1" />
     <line x1="795" y1="849" x2="795" y2="150"         style="stroke:rgb(0,0,0);stroke-width:1" />
     <line x1="278" y1="762" x2="272" y2="790"         style="stroke:rgb(0,0,0);stroke-width:1" />
     <line x1="140" y1="803" x2="116" y2="840"         style="stroke:rgb(0,0,0);stroke-width:1" />
     <line x1="278" y1="762" x2="140" y2="803"         style="stroke:rgb(0,0,0);stroke-width:1" />
     <line x1="272" y1="790" x2="116" y2="840"         style="stroke:rgb(0,0,0);stroke-width:1" />
     <line x1="801" y1="768" x2="852" y2="796"         style="stroke:rgb(0,0,0);stroke-width:1" />
     <line x1="743" y1="810" x2="795" y2="849"         style="stroke:rgb(0,0,0);stroke-width:1" />
     <line x1="801" y1="768" x2="743" y2="810"         style="stroke:rgb(0,0,0);stroke-width:1" />
     <line x1="852" y1="796" x2="795" y2="849"         style="stroke:rgb(0,0,0);stroke-width:1" />
     <line x1="278" y1="762" x2="272" y2="790"         style="stroke:rgb(0,0,0);stroke-width:1" />
     <line x1="801" y1="768" x2="852" y2="796"         style="stroke:rgb(0,0,0);stroke-width:1" />
     <line x1="278" y1="762" x2="801" y2="768"         style="stroke:rgb(0,0,0);stroke-width:1" />
     <line x1="272" y1="790" x2="852" y2="796"         style="stroke:rgb(0,0,0);stroke-width:1" />
     <line x1="140" y1="803" x2="116" y2="840"         style="stroke:rgb(0,0,0);stroke-width:1" />
     <line x1="743" y1="810" x2="795" y2="849"         style="stroke:rgb(0,0,0);stroke-width:1" />
     <line x1="140" y1="803" x2="743" y2="810"         style="stroke:rgb(0,0,0);stroke-width:1" />
     <line x1="116" y1="840" x2="795" y2="849"         style="stroke:rgb(0,0,0);stroke-width:1" />
     <line x1="278" y1="237" x2="272" y2="209"         style="stroke:rgb(0,0,0);stroke-width:1" />
     <line x1="140" y1="196" x2="116" y2="159"         style="stroke:rgb(0,0,0);stroke-width:1" />
     <line x1="278" y1="237" x2="140" y2="196"         style="stroke:rgb(0,0,0);stroke-width:1" />
     <line x1="272" y1="209" x2="116" y2="159"         style="stroke:rgb(0,0,0);stroke-width:1" />
     <line x1="801" y1="231" x2="852" y2="203"         style="stroke:rgb(0,0,0);stroke-width:1" />
     <line x1="743" y1="189" x2="795" y2="150"         style="stroke:rgb(0,0,0);stroke-width:1" />
     <line x1="801" y1="231" x2="743" y2="189"         style="stroke:rgb(0,0,0);stroke-width:1" />
     <line x1="852" y1="203" x2="795" y2="150"         style="stroke:rgb(0,0,0);stroke-width:1" />
     <line x1="278" y1="237" x2="272" y2="209"         style="stroke:rgb(0,0,0);stroke-width:1" />
     <line x1="801" y1="231" x2="852" y2="203"         style="stroke:rgb(0,0,0);stroke-width:1" />
     <line x1="278" y1="237" x2="801" y2="231"         style="stroke:rgb(0,0,0);stroke-width:1" />
     <line x1="272" y1="209" x2="852" y2="203"         style="stroke:rgb(0,0,0);stroke-width:1" />
     <line x1="140" y1="196" x2="116" y2="159"         style="stroke:rgb(0,0,0);stroke-width:1" />
     <line x1="743" y1="189" x2="795" y2="150"         style="stroke:rgb(0,0,0);stroke-width:1" />
     <line x1="140" y1="196" x2="743" y2="189"         style="stroke:rgb(0,0,0);stroke-width:1" />
     <line x1="116" y1="159" x2="795" y2="150"         style="stroke:rgb(0,0,0);stroke-width:1" />
</svg>
